<?xml version="1.0" encoding="UTF-8" standalone="no"?>
<svg
   xmlns:dc="http://purl.org/dc/elements/1.1/"
   xmlns:cc="http://creativecommons.org/ns#"
   xmlns:rdf="http://www.w3.org/1999/02/22-rdf-syntax-ns#"
   xmlns:svg="http://www.w3.org/2000/svg"
   xmlns="http://www.w3.org/2000/svg"
   xmlns:sodipodi="http://sodipodi.sourceforge.net/DTD/sodipodi-0.dtd"
   xmlns:inkscape="http://www.inkscape.org/namespaces/inkscape"
   width="599.97998"
   height="590.82086"
   viewBox="0 0 599.97998 590.82086"
   id="svg20639"
   version="1.1"
   inkscape:version="0.48.2 r9819"
   sodipodi:docname="Vesalius_04_2004-Model.svg">
  <metadata
     id="metadata21751">
    <rdf:RDF>
      <cc:Work
         rdf:about="">
        <dc:format>image/svg+xml</dc:format>
        <dc:type
           rdf:resource="http://purl.org/dc/dcmitype/StillImage" />
        <dc:title />
      </cc:Work>
    </rdf:RDF>
  </metadata>
  <defs
     id="defs21749" />
  <sodipodi:namedview
     pagecolor="#ffffff"
     bordercolor="#666666"
     borderopacity="1"
     objecttolerance="10"
     gridtolerance="10"
     guidetolerance="10"
     inkscape:pageopacity="0"
     inkscape:pageshadow="2"
     inkscape:window-width="1920"
     inkscape:window-height="1018"
     id="namedview21747"
     showgrid="false"
     inkscape:zoom="186.88"
     inkscape:cx="3.5356076"
     inkscape:cy="0.11136519"
     inkscape:window-x="-8"
     inkscape:window-y="-8"
     inkscape:window-maximized="1"
     inkscape:current-layer="svg20639"
     fit-margin-top="0"
     fit-margin-left="0"
     fit-margin-right="0"
     fit-margin-bottom="0" />
  <desc
     id="desc20643">Produce by DWG to SVG Converter 2012 MX</desc>
  <path
     d="m 455.53613,212.40899 0,-28.30675"
     id="path21077"
     inkscape:connector-curvature="0"
     style="fill:none;stroke:#000000;stroke-width:1.04215753" />
  <path
     d="m 456.12571,211.83129 0,-27.13074"
     id="path21079"
     inkscape:connector-curvature="0"
     style="fill:none;stroke:#000000;stroke-width:1.04215753" />
  <path
     d="m 455.53613,184.10224 33.26963,0"
     id="path21081"
     inkscape:connector-curvature="0"
     style="fill:none;stroke:#000000;stroke-width:1.04215753" />
  <path
     d="m 456.12571,184.70055 32.68005,0"
     id="path21083"
     inkscape:connector-curvature="0"
     style="fill:none;stroke:#000000;stroke-width:1.04215753" />
  <path
     d="m 455.53613,212.40899 33.85923,0"
     id="path21085"
     inkscape:connector-curvature="0"
     style="fill:none;stroke:#000000;stroke-width:1.04215753" />
  <path
     d="m 456.12571,211.83129 33.26965,0"
     id="path21087"
     inkscape:connector-curvature="0"
     style="fill:none;stroke:#000000;stroke-width:1.04215753" />
  <path
     d="m 488.80576,196.50191 -20.6777,0"
     id="path21089"
     inkscape:connector-curvature="0"
     style="fill:none;stroke:#000000;stroke-width:1.04215753" />
  <path
     d="m 468.12806,196.50191 0,3.52803"
     id="path21091"
     inkscape:connector-curvature="0"
     style="fill:none;stroke:#000000;stroke-width:1.04215753" />
  <path
     d="m 468.12806,200.02994 21.2673,0"
     id="path21093"
     inkscape:connector-curvature="0"
     style="fill:none;stroke:#000000;stroke-width:1.04215753" />
  <path
     d="m 489.39536,200.02994 0,-16.50538"
     id="path21095"
     inkscape:connector-curvature="0"
     style="fill:none;stroke:#000000;stroke-width:1.04215753" />
  <path
     d="m 468.71763,199.43162 20.08813,0"
     id="path21097"
     inkscape:connector-curvature="0"
     style="fill:none;stroke:#000000;stroke-width:1.04215753" />
  <path
     d="m 488.80576,199.43162 0,-15.90706"
     id="path21099"
     inkscape:connector-curvature="0"
     style="fill:none;stroke:#000000;stroke-width:1.04215753" />
  <path
     d="m 488.80576,197.07959 -20.08813,0"
     id="path21101"
     inkscape:connector-curvature="0"
     style="fill:none;stroke:#000000;stroke-width:1.04215753" />
  <path
     d="m 468.71763,197.07959 0,2.35203"
     id="path21103"
     inkscape:connector-curvature="0"
     style="fill:none;stroke:#000000;stroke-width:1.04215753" />
  <path
     d="m 489.39536,212.40899 0,-0.5777"
     id="path21105"
     inkscape:connector-curvature="0"
     style="fill:none;stroke:#000000;stroke-width:1.04215753" />
  <path
     d="m 488.80576,190.60123 -19.18268,0"
     id="path21107"
     inkscape:connector-curvature="0"
     style="fill:none;stroke:#000000;stroke-width:1.04215753" />
  <path
     d="m 472.90794,187.17635 0.21056,0.20634 -3.28484,3.21854 -0.42114,0 3.49542,-3.42488 z"
     id="path21109"
     inkscape:connector-curvature="0"
     style="fill:#000000;fill-rule:evenodd" />
  <path
     d="m 469.41252,190.60123 0.42114,0 3.28484,3.21855 -0.21056,0.20632 -3.49542,-3.42487 z"
     id="path21111"
     inkscape:connector-curvature="0"
     style="fill:#000000;fill-rule:evenodd" />
  <path
     d="m 468.42286,205.93061 20.08812,0"
     id="path21113"
     inkscape:connector-curvature="0"
     style="fill:none;stroke:#000000;stroke-width:1.04215753" />
  <path
     d="m 485.22612,209.35549 -0.21056,-0.20633 3.28484,-3.21855 0.42115,0 -3.49543,3.42488 z"
     id="path21115"
     inkscape:connector-curvature="0"
     style="fill:#000000;fill-rule:evenodd" />
  <path
     d="m 488.72155,205.93061 -0.42115,0 -3.28484,-3.21855 0.21056,-0.20631 3.49543,3.42486 z"
     id="path21117"
     inkscape:connector-curvature="0"
     style="fill:#000000;fill-rule:evenodd" />
  <path
     d="m 488.80576,184.70055 0,-0.59831"
     id="path21119"
     inkscape:connector-curvature="0"
     style="fill:none;stroke:#000000;stroke-width:1.04215753" />
  <path
     d="m 488.61626,143.39583 0,-31.11265 m 0,0 35.96491,0 m 0,0 0,-37.11649 m 0,0 -69.63464,0 m 0,0 0,11.739456 m 0,0 -73.74069,0 m 0,0 0,56.489684 m 0,0 107.41042,0"
     id="path21123"
     inkscape:connector-curvature="0"
     style="fill:none;stroke:#000000;stroke-width:1.04215753" />
  <path
     d="m 497.92332,191.48839 0.23166,-0.14441 m 0,0 0.3369,-0.43327 m 0,0 0,2.95035 m 2.96901,-2.95035 -1.13707,2.95035 m -0.46325,-2.95035 1.60032,0 m 2.16882,0.99033 -0.1053,0.41263 m 0,0 -0.23162,0.28884 m 0,0 -0.33691,0.14444 m 0,0 -0.12634,0 m 0,0 -0.33692,-0.14444 m 0,0 -0.23161,-0.28884 m 0,0 -0.10531,-0.41263 m 0,0 0,-0.14443 m 0,0 0.10531,-0.41263 m 0,0 0.23161,-0.28883 m 0,0 0.33692,-0.14444 m 0,0 0.12634,0 m 0,0 0.33691,0.14444 m 0,0 0.23162,0.28883 m 0,0 0.1053,0.55706 m 0,0 0,0.70147 m 0,0 -0.1053,0.70148 m 0,0 -0.23162,0.41263 m 0,0 -0.33691,0.14444 m 0,0 -0.23163,0 m 0,0 -0.33691,-0.14444 m 0,0 -0.12633,-0.28884 m 2.52682,-1.93939 0.21057,-0.14441 m 0,0 0.35794,-0.43327 m 0,0 0,2.95035"
     id="path21125"
     inkscape:connector-curvature="0"
     style="fill:none;stroke:#000000;stroke-width:1.04215753" />
  <path
     d="m 447.34506,112.55138 0.23163,-0.14441 m 0,0 0.3369,-0.41264 m 0,0 0,2.9297 m 2.969,-2.9297 -1.13706,2.9297 m -0.46325,-2.9297 1.60031,0 m 2.27412,0 -1.13706,2.9297 m -0.46324,-2.9297 1.6003,0 m 1.36869,0 -0.3369,0.12377 m 0,0 -0.23164,0.43326 m 0,0 -0.1053,0.70149 m 0,0 0,0.41262 m 0,0 0.1053,0.70148 m 0,0 0.23164,0.41264 m 0,0 0.3369,0.14441 m 0,0 0.23164,0 m 0,0 0.35795,-0.14441 m 0,0 0.21057,-0.41264 m 0,0 0.12634,-0.70148 m 0,0 0,-0.41262 m 0,0 -0.12634,-0.70149 m 0,0 -0.21057,-0.43326 m 0,0 -0.35795,-0.12377 m 0,0 -0.23164,0"
     id="path21127"
     inkscape:connector-curvature="0"
     style="fill:none;stroke:#000000;stroke-width:1.04215753" />
  <path
     d="m 501.46089,181.29633 8.99123,0"
     id="path21129"
     inkscape:connector-curvature="0"
     style="fill:none;stroke:#000000;stroke-width:1.04215753" />
  <path
     d="m 510.45212,181.66768 -8.99123,0"
     id="path21131"
     inkscape:connector-curvature="0"
     style="fill:none;stroke:#000000;stroke-width:1.04215753" />
  <path
     d="m 510.81006,183.52456 -1.116,0 m -0.75805,0 -1.49503,0 m -0.73698,0 -1.51608,0 m -0.73697,0 -1.49505,0 m -0.75804,0 -1.11602,0"
     id="path21133"
     inkscape:connector-curvature="0"
     style="fill:none;stroke:#000000;stroke-width:1.04215753" />
  <path
     d="m 510.45212,183.52456 0,-2.22823"
     id="path21135"
     inkscape:connector-curvature="0"
     style="fill:none;stroke:#000000;stroke-width:1.04215753" />
  <path
     d="m 501.46089,181.29633 0,2.22823"
     id="path21137"
     inkscape:connector-curvature="0"
     style="fill:none;stroke:#000000;stroke-width:1.04215753" />
  <path
     d="m 510.81006,181.29633 -1.116,0 m -0.75805,0 -1.49503,0 m -0.73698,0 -1.51608,0 m -0.73697,0 -1.49505,0 m -0.75804,0 -1.11602,0"
     id="path21139"
     inkscape:connector-curvature="0"
     style="fill:none;stroke:#000000;stroke-width:1.04215753" />
  <path
     d="m 510.45212,172.48658 0,8.80975"
     id="path21141"
     inkscape:connector-curvature="0"
     style="fill:none;stroke:#000000;stroke-width:1.04215753" />
  <path
     d="m 488.51098,196.50191 0,-11.80136"
     id="path21143"
     inkscape:connector-curvature="0"
     style="fill:none;stroke:#000000;stroke-width:1.04215753" />
  <path
     d="m 487.90033,196.50191 0,-1.13474 m 0,-0.74275 0,-1.46483 m 0,-0.72213 0,-1.46486 m 0,-0.74272 0,-1.46488 m 0,-0.74273 0,-1.46487 m 0,-0.74272 0,-1.11413"
     id="path21145"
     inkscape:connector-curvature="0"
     style="fill:none;stroke:#000000;stroke-width:1.04215753" />
  <path
     d="m 485.81572,196.50191 0,-11.80136"
     id="path21147"
     inkscape:connector-curvature="0"
     style="fill:none;stroke:#000000;stroke-width:1.04215753" />
  <path
     d="m 485.20507,196.50191 0,-1.13474 m 0,-0.74275 0,-1.46483 m 0,-0.72213 0,-1.46486 m 0,-0.74272 0,-1.46488 m 0,-0.74273 0,-1.46487 m 0,-0.74272 0,-1.11413"
     id="path21149"
     inkscape:connector-curvature="0"
     style="fill:none;stroke:#000000;stroke-width:1.04215753" />
  <path
     d="m 483.09941,196.50191 0,-11.80136"
     id="path21151"
     inkscape:connector-curvature="0"
     style="fill:none;stroke:#000000;stroke-width:1.04215753" />
  <path
     d="m 482.50981,196.50191 0,-1.13474 m 0,-0.74275 0,-1.46483 m 0,-0.72213 0,-1.46486 m 0,-0.74272 0,-1.46488 m 0,-0.74273 0,-1.46487 m 0,-0.74272 0,-1.11413"
     id="path21153"
     inkscape:connector-curvature="0"
     style="fill:none;stroke:#000000;stroke-width:1.04215753" />
  <path
     d="m 480.40414,196.50191 0,-11.80136"
     id="path21155"
     inkscape:connector-curvature="0"
     style="fill:none;stroke:#000000;stroke-width:1.04215753" />
  <path
     d="m 479.81455,196.50191 0,-1.13474 m 0,-0.74275 0,-1.46483 m 0,-0.72213 0,-1.46486 m 0,-0.74272 0,-1.46488 m 0,-0.74273 0,-1.46487 m 0,-0.74272 0,-1.11413"
     id="path21157"
     inkscape:connector-curvature="0"
     style="fill:none;stroke:#000000;stroke-width:1.04215753" />
  <path
     d="m 477.70887,196.50191 0,-11.80136"
     id="path21159"
     inkscape:connector-curvature="0"
     style="fill:none;stroke:#000000;stroke-width:1.04215753" />
  <path
     d="m 477.11929,196.50191 0,-1.13474 m 0,-0.74275 0,-1.46483 m 0,-0.72213 0,-1.46486 m 0,-0.74272 0,-1.46488 m 0,-0.74273 0,-1.46487 m 0,-0.74272 0,-1.11413"
     id="path21161"
     inkscape:connector-curvature="0"
     style="fill:none;stroke:#000000;stroke-width:1.04215753" />
  <path
     d="m 475.0136,196.50191 0,-11.80136"
     id="path21163"
     inkscape:connector-curvature="0"
     style="fill:none;stroke:#000000;stroke-width:1.04215753" />
  <path
     d="m 474.42402,196.50191 0,-1.13474 m 0,-0.74275 0,-1.46483 m 0,-0.72213 0,-1.46486 m 0,-0.74272 0,-1.46488 m 0,-0.74273 0,-1.46487 m 0,-0.74272 0,-1.11413"
     id="path21165"
     inkscape:connector-curvature="0"
     style="fill:none;stroke:#000000;stroke-width:1.04215753" />
  <path
     d="m 472.31835,196.50191 0,-11.80136"
     id="path21167"
     inkscape:connector-curvature="0"
     style="fill:none;stroke:#000000;stroke-width:1.04215753" />
  <path
     d="m 471.72877,196.50191 0,-1.13474 m 0,-0.74275 0,-1.46483 m 0,-0.72213 0,-1.46486 m 0,-0.74272 0,-1.46488 m 0,-0.74273 0,-1.46487 m 0,-0.74272 0,-1.11413"
     id="path21169"
     inkscape:connector-curvature="0"
     style="fill:none;stroke:#000000;stroke-width:1.04215753" />
  <path
     d="m 469.62308,196.50191 0,-11.80136"
     id="path21171"
     inkscape:connector-curvature="0"
     style="fill:none;stroke:#000000;stroke-width:1.04215753" />
  <path
     d="m 469.03349,196.50191 0,-1.13474 m 0,-0.74275 0,-1.46483 m 0,-0.72213 0,-1.46486 m 0,-0.74272 0,-1.46488 m 0,-0.74273 0,-1.46487 m 0,-0.74272 0,-1.11413"
     id="path21173"
     inkscape:connector-curvature="0"
     style="fill:none;stroke:#000000;stroke-width:1.04215753" />
  <path
     d="m 469.62308,200.02994 0,11.80135"
     id="path21175"
     inkscape:connector-curvature="0"
     style="fill:none;stroke:#000000;stroke-width:1.04215753" />
  <path
     d="m 470.21266,200.02994 0,1.11413 m 0,0.74272 0,1.46486 m 0,0.74274 0,1.46485 m 0,0.74273 0,1.46486 m 0,0.72212 0,1.46485 m 0,0.74273 0,1.13476"
     id="path21177"
     inkscape:connector-curvature="0"
     style="fill:none;stroke:#000000;stroke-width:1.04215753" />
  <path
     d="m 472.31835,200.02994 0,11.80135"
     id="path21179"
     inkscape:connector-curvature="0"
     style="fill:none;stroke:#000000;stroke-width:1.04215753" />
  <path
     d="m 472.929,200.02994 0,1.11413 m 0,0.74272 0,1.46486 m 0,0.74274 0,1.46485 m 0,0.74273 0,1.46486 m 0,0.72212 0,1.46485 m 0,0.74273 0,1.13476"
     id="path21181"
     inkscape:connector-curvature="0"
     style="fill:none;stroke:#000000;stroke-width:1.04215753" />
  <path
     d="m 475.0136,200.02994 0,11.80135"
     id="path21183"
     inkscape:connector-curvature="0"
     style="fill:none;stroke:#000000;stroke-width:1.04215753" />
  <path
     d="m 475.62425,200.02994 0,1.11413 m 0,0.74272 0,1.46486 m 0,0.74274 0,1.46485 m 0,0.74273 0,1.46486 m 0,0.72212 0,1.46485 m 0,0.74273 0,1.13476"
     id="path21185"
     inkscape:connector-curvature="0"
     style="fill:none;stroke:#000000;stroke-width:1.04215753" />
  <path
     d="m 477.70887,200.02994 0,11.80135"
     id="path21187"
     inkscape:connector-curvature="0"
     style="fill:none;stroke:#000000;stroke-width:1.04215753" />
  <path
     d="m 478.31952,200.02994 0,1.11413 m 0,0.74272 0,1.46486 m 0,0.74274 0,1.46485 m 0,0.74273 0,1.46486 m 0,0.72212 0,1.46485 m 0,0.74273 0,1.13476"
     id="path21189"
     inkscape:connector-curvature="0"
     style="fill:none;stroke:#000000;stroke-width:1.04215753" />
  <path
     d="m 480.40414,200.02994 0,11.80135"
     id="path21191"
     inkscape:connector-curvature="0"
     style="fill:none;stroke:#000000;stroke-width:1.04215753" />
  <path
     d="m 481.01477,200.02994 0,1.11413 m 0,0.74272 0,1.46486 m 0,0.74274 0,1.46485 m 0,0.74273 0,1.46486 m 0,0.72212 0,1.46485 m 0,0.74273 0,1.13476"
     id="path21193"
     inkscape:connector-curvature="0"
     style="fill:none;stroke:#000000;stroke-width:1.04215753" />
  <path
     d="m 483.09941,200.02994 0,11.80135"
     id="path21195"
     inkscape:connector-curvature="0"
     style="fill:none;stroke:#000000;stroke-width:1.04215753" />
  <path
     d="m 483.71004,200.02994 0,1.11413 m 0,0.74272 0,1.46486 m 0,0.74274 0,1.46485 m 0,0.74273 0,1.46486 m 0,0.72212 0,1.46485 m 0,0.74273 0,1.13476"
     id="path21197"
     inkscape:connector-curvature="0"
     style="fill:none;stroke:#000000;stroke-width:1.04215753" />
  <path
     d="m 485.81572,200.02994 0,11.80135"
     id="path21199"
     inkscape:connector-curvature="0"
     style="fill:none;stroke:#000000;stroke-width:1.04215753" />
  <path
     d="m 486.40531,200.02994 0,1.11413 m 0,0.74272 0,1.46486 m 0,0.74274 0,1.46485 m 0,0.74273 0,1.46486 m 0,0.72212 0,1.46485 m 0,0.74273 0,1.13476"
     id="path21201"
     inkscape:connector-curvature="0"
     style="fill:none;stroke:#000000;stroke-width:1.04215753" />
  <path
     d="m 488.51098,200.02994 0,11.80135"
     id="path21203"
     inkscape:connector-curvature="0"
     style="fill:none;stroke:#000000;stroke-width:1.04215753" />
  <path
     d="m 489.10058,200.02994 0,1.11413 m 0,0.74272 0,1.46486 m 0,0.74274 0,1.46485 m 0,0.74273 0,1.46486 m 0,0.72212 0,1.46485 m 0,0.74273 0,1.13476"
     id="path21205"
     inkscape:connector-curvature="0"
     style="fill:none;stroke:#000000;stroke-width:1.04215753" />
  <path
     d="m 454.94653,213.00729 57.65336,0 m 0,0 0,-29.48273 m 0,0 -57.65336,0 m 0,0 0,29.48273"
     id="path21207"
     inkscape:connector-curvature="0"
     style="fill:none;stroke:#000000;stroke-width:1.04215753" />
  <path
     d="m 182.09334,410.74183 234.12985,0"
     id="path21209"
     inkscape:connector-curvature="0"
     style="fill:none;stroke:#000000;stroke-width:1.04215753" />
  <path
     d="m 182.09334,412.99069 108.06316,0"
     id="path21211"
     inkscape:connector-curvature="0"
     style="fill:none;stroke:#000000;stroke-width:1.04215753" />
  <path
     d="m 308.13895,412.99069 108.08424,0"
     id="path21213"
     inkscape:connector-curvature="0"
     style="fill:none;stroke:#000000;stroke-width:1.04215753" />
  <path
     d="m 182.09334,410.74183 0,-229.40425"
     id="path21215"
     inkscape:connector-curvature="0"
     style="fill:none;stroke:#000000;stroke-width:1.04215753" />
  <path
     d="m 179.79813,410.74183 0,-105.88205"
     id="path21217"
     inkscape:connector-curvature="0"
     style="fill:none;stroke:#000000;stroke-width:1.04215753" />
  <path
     d="m 179.79813,287.24028 0,-105.9027"
     id="path21219"
     inkscape:connector-curvature="0"
     style="fill:none;stroke:#000000;stroke-width:1.04215753" />
  <path
     d="m 172.36513,410.74183 0,-238.91546"
     id="path21221"
     inkscape:connector-curvature="0"
     style="fill:none;stroke:#000000;stroke-width:1.04215753" />
  <path
     d="m 170.09098,422.50192 0,-252.9038"
     id="path21223"
     inkscape:connector-curvature="0"
     style="fill:none;stroke:#000000;stroke-width:1.04215753" />
  <path
     d="m 182.09334,420.27371 243.83703,0"
     id="path21225"
     inkscape:connector-curvature="0"
     style="fill:none;stroke:#000000;stroke-width:1.04215753" />
  <path
     d="m 170.09098,422.50192 258.11352,0"
     id="path21227"
     inkscape:connector-curvature="0"
     style="fill:none;stroke:#000000;stroke-width:1.04215753" />
  <path
     d="m 182.09334,410.74183 -9.72821,0 m 0,0 0,9.53188 m 0,0 9.72821,0 m 0,0 0,-9.53188"
     id="path21229"
     inkscape:connector-curvature="0"
     style="fill:none;stroke:#000000;stroke-width:1.04215753" />
  <path
     d="m 182.09334,412.99069 0,-2.24886"
     id="path21231"
     inkscape:connector-curvature="0"
     style="fill:none;stroke:#000000;stroke-width:1.04215753" />
  <path
     d="m 182.09334,410.74183 -2.29521,0"
     id="path21233"
     inkscape:connector-curvature="0"
     style="fill:none;stroke:#000000;stroke-width:1.04215753" />
  <path
     d="m 425.93037,304.85978 0,-17.6195"
     id="path21235"
     inkscape:connector-curvature="0"
     style="fill:none;stroke:#000000;stroke-width:1.04215753" />
  <path
     d="m 416.22319,304.85978 0,-17.6195"
     id="path21237"
     inkscape:connector-curvature="0"
     style="fill:none;stroke:#000000;stroke-width:1.04215753" />
  <path
     d="m 425.93037,287.24028 -9.70718,0"
     id="path21239"
     inkscape:connector-curvature="0"
     style="fill:none;stroke:#000000;stroke-width:1.04215753" />
  <path
     d="m 425.93037,304.85978 -9.70718,0"
     id="path21241"
     inkscape:connector-curvature="0"
     style="fill:none;stroke:#000000;stroke-width:1.04215753" />
  <path
     d="m 416.22319,181.33758 0,229.40425"
     id="path21243"
     inkscape:connector-curvature="0"
     style="fill:none;stroke:#000000;stroke-width:1.04215753" />
  <path
     d="m 418.49734,181.33758 0,105.9027"
     id="path21245"
     inkscape:connector-curvature="0"
     style="fill:none;stroke:#000000;stroke-width:1.04215753" />
  <path
     d="m 418.49734,304.85978 0,105.88205"
     id="path21247"
     inkscape:connector-curvature="0"
     style="fill:none;stroke:#000000;stroke-width:1.04215753" />
  <path
     d="m 416.22319,181.33758 -234.12985,0"
     id="path21249"
     inkscape:connector-curvature="0"
     style="fill:none;stroke:#000000;stroke-width:1.04215753" />
  <path
     d="m 416.22319,179.10935 -108.08424,0"
     id="path21251"
     inkscape:connector-curvature="0"
     style="fill:none;stroke:#000000;stroke-width:1.04215753" />
  <path
     d="m 290.1565,179.10935 -108.06316,0"
     id="path21253"
     inkscape:connector-curvature="0"
     style="fill:none;stroke:#000000;stroke-width:1.04215753" />
  <path
     d="m 416.22319,171.82637 -243.85806,0"
     id="path21255"
     inkscape:connector-curvature="0"
     style="fill:none;stroke:#000000;stroke-width:1.04215753" />
  <path
     d="m 428.2045,169.59812 -258.11352,0"
     id="path21257"
     inkscape:connector-curvature="0"
     style="fill:none;stroke:#000000;stroke-width:1.04215753" />
  <path
     d="m 425.93037,181.33758 0,238.93613"
     id="path21259"
     inkscape:connector-curvature="0"
     style="fill:none;stroke:#000000;stroke-width:1.04215753" />
  <path
     d="m 428.2045,169.59812 0,252.9038"
     id="path21261"
     inkscape:connector-curvature="0"
     style="fill:none;stroke:#000000;stroke-width:1.04215753" />
  <path
     d="m 416.22319,181.33758 0,-9.51121 m 0,0 9.70718,0 m 0,0 0,9.51121 m 0,0 -9.70718,0"
     id="path21263"
     inkscape:connector-curvature="0"
     style="fill:none;stroke:#000000;stroke-width:1.04215753" />
  <path
     d="m 418.49734,181.33758 -2.27415,0"
     id="path21265"
     inkscape:connector-curvature="0"
     style="fill:none;stroke:#000000;stroke-width:1.04215753" />
  <path
     d="m 416.22319,181.33758 0,-2.22823"
     id="path21267"
     inkscape:connector-curvature="0"
     style="fill:none;stroke:#000000;stroke-width:1.04215753" />
  <path
     d="m 416.22319,410.74183 9.70718,0 m 0,0 0,9.53188 m 0,0 -9.70718,0 m 0,0 0,-9.53188"
     id="path21269"
     inkscape:connector-curvature="0"
     style="fill:none;stroke:#000000;stroke-width:1.04215753" />
  <path
     d="m 416.22319,412.99069 0,-2.24886"
     id="path21271"
     inkscape:connector-curvature="0"
     style="fill:none;stroke:#000000;stroke-width:1.04215753" />
  <path
     d="m 416.22319,410.74183 2.27415,0"
     id="path21273"
     inkscape:connector-curvature="0"
     style="fill:none;stroke:#000000;stroke-width:1.04215753" />
  <path
     d="m 182.09334,181.33758 0,-9.51121 m 0,0 -9.72821,0 m 0,0 0,9.51121 m 0,0 9.72821,0"
     id="path21275"
     inkscape:connector-curvature="0"
     style="fill:none;stroke:#000000;stroke-width:1.04215753" />
  <path
     d="m 179.79813,181.33758 2.29521,0"
     id="path21277"
     inkscape:connector-curvature="0"
     style="fill:none;stroke:#000000;stroke-width:1.04215753" />
  <path
     d="m 182.09334,181.33758 0,-2.22823"
     id="path21279"
     inkscape:connector-curvature="0"
     style="fill:none;stroke:#000000;stroke-width:1.04215753" />
  <path
     d="m 290.1565,181.33758 17.98245,0 m 0,0 0,-9.51121 m 0,0 -17.98245,0 m 0,0 0,9.51121"
     id="path21281"
     inkscape:connector-curvature="0"
     style="fill:none;stroke:#000000;stroke-width:1.04215753" />
  <path
     d="m 290.1565,410.74183 17.98245,0 m 0,0 0,9.53188 m 0,0 -17.98245,0 m 0,0 0,-9.53188"
     id="path21283"
     inkscape:connector-curvature="0"
     style="fill:none;stroke:#000000;stroke-width:1.04215753" />
  <path
     d="m 182.09334,287.24028 0,17.6195 m 0,0 -9.72821,0 m 0,0 0,-17.6195 m 0,0 9.72821,0"
     id="path21285"
     inkscape:connector-curvature="0"
     style="fill:none;stroke:#000000;stroke-width:1.04215753" />
  <path
     d="m 416.22319,287.24028 0,17.6195 m 0,0 9.70718,0 m 0,0 0,-17.6195 m 0,0 -9.70718,0"
     id="path21287"
     inkscape:connector-curvature="0"
     style="fill:none;stroke:#000000;stroke-width:1.04215753" />
  <path
     d="m 73.7143,505.19391 0,-235.63503"
     id="path21289"
     inkscape:connector-curvature="0"
     style="fill:none;stroke:#000000;stroke-width:1.04215753" />
  <path
     d="m 73.7143,142.24044 0,-67.07375"
     id="path21291"
     inkscape:connector-curvature="0"
     style="fill:none;stroke:#000000;stroke-width:1.04215753" />
  <path
     d="m 69.881974,520.68833 0,-449.297249"
     id="path21293"
     inkscape:connector-curvature="0"
     style="fill:none;stroke:#000000;stroke-width:1.04215753" />
  <path
     d="m 7.7224832,590.2998 0,-304.81322"
     id="path21295"
     inkscape:connector-curvature="0"
     style="fill:none;stroke:#000000;stroke-width:1.04215753" />
  <path
     d="m 11.554809,586.54484 0,-304.83386"
     id="path21297"
     inkscape:connector-curvature="0"
     style="fill:none;stroke:#000000;stroke-width:1.04215753" />
  <path
     d="m 71.440174,505.19391 75.825306,0"
     id="path21299"
     inkscape:connector-curvature="0"
     style="fill:none;stroke:#000000;stroke-width:1.04215753" />
  <path
     d="m 177.71353,505.19391 82.47923,0"
     id="path21301"
     inkscape:connector-curvature="0"
     style="fill:none;stroke:#000000;stroke-width:1.04215753" />
  <path
     d="m 343.02997,505.19391 75.88848,0"
     id="path21303"
     inkscape:connector-curvature="0"
     style="fill:none;stroke:#000000;stroke-width:1.04215753" />
  <path
     d="m 71.440174,507.42213 73.530116,0"
     id="path21305"
     inkscape:connector-curvature="0"
     style="fill:none;stroke:#000000;stroke-width:1.04215753" />
  <path
     d="m 179.98766,507.42213 77.93097,0"
     id="path21307"
     inkscape:connector-curvature="0"
     style="fill:none;stroke:#000000;stroke-width:1.04215753" />
  <path
     d="m 345.3041,507.42213 71.34022,0"
     id="path21309"
     inkscape:connector-curvature="0"
     style="fill:none;stroke:#000000;stroke-width:1.04215753" />
  <path
     d="m 71.440174,519.16159 2.274126,0"
     id="path21311"
     inkscape:connector-curvature="0"
     style="fill:none;stroke:#000000;stroke-width:1.04215753" />
  <path
     d="m 144.97029,519.16159 310.01834,0"
     id="path21313"
     inkscape:connector-curvature="0"
     style="fill:none;stroke:#000000;stroke-width:1.04215753" />
  <path
     d="m 524.58117,519.16159 2.29519,0"
     id="path21315"
     inkscape:connector-curvature="0"
     style="fill:none;stroke:#000000;stroke-width:1.04215753" />
  <path
     d="m 147.26548,516.93336 30.44805,0"
     id="path21317"
     inkscape:connector-curvature="0"
     style="fill:none;stroke:#000000;stroke-width:1.04215753" />
  <path
     d="m 260.19276,516.93336 82.83721,0"
     id="path21319"
     inkscape:connector-curvature="0"
     style="fill:none;stroke:#000000;stroke-width:1.04215753" />
  <path
     d="m 69.881974,520.68833 458.552566,0"
     id="path21321"
     inkscape:connector-curvature="0"
     style="fill:none;stroke:#000000;stroke-width:1.04215753" />
  <path
     d="m 71.440174,519.16159 0,-446.243762"
     id="path21323"
     inkscape:connector-curvature="0"
     style="fill:none;stroke:#000000;stroke-width:1.04215753" />
  <path
     d="m 144.97029,519.16159 0,-11.73946"
     id="path21325"
     inkscape:connector-curvature="0"
     style="fill:none;stroke:#000000;stroke-width:1.04215753" />
  <path
     d="m 147.26548,519.16159 0,-13.96768"
     id="path21327"
     inkscape:connector-curvature="0"
     style="fill:none;stroke:#000000;stroke-width:1.04215753" />
  <path
     d="m 177.71353,519.16159 0,-13.96768"
     id="path21329"
     inkscape:connector-curvature="0"
     style="fill:none;stroke:#000000;stroke-width:1.04215753" />
  <path
     d="m 179.98766,519.16159 0,-11.73946"
     id="path21331"
     inkscape:connector-curvature="0"
     style="fill:none;stroke:#000000;stroke-width:1.04215753" />
  <path
     d="m 73.7143,507.42213 0,11.73946"
     id="path21333"
     inkscape:connector-curvature="0"
     style="fill:none;stroke:#000000;stroke-width:1.04215753" />
  <path
     d="m 257.91863,519.16159 0,-11.73946"
     id="path21335"
     inkscape:connector-curvature="0"
     style="fill:none;stroke:#000000;stroke-width:1.04215753" />
  <path
     d="m 260.19276,519.16159 0,-13.96768"
     id="path21337"
     inkscape:connector-curvature="0"
     style="fill:none;stroke:#000000;stroke-width:1.04215753" />
  <path
     d="m 343.02997,519.16159 0,-13.96768"
     id="path21339"
     inkscape:connector-curvature="0"
     style="fill:none;stroke:#000000;stroke-width:1.04215753" />
  <path
     d="m 345.3041,519.16159 0,-11.73946"
     id="path21341"
     inkscape:connector-curvature="0"
     style="fill:none;stroke:#000000;stroke-width:1.04215753" />
  <path
     d="m 418.91845,519.16159 0,-13.96768"
     id="path21343"
     inkscape:connector-curvature="0"
     style="fill:none;stroke:#000000;stroke-width:1.04215753" />
  <path
     d="m 416.64432,519.16159 0,-11.73946"
     id="path21345"
     inkscape:connector-curvature="0"
     style="fill:none;stroke:#000000;stroke-width:1.04215753" />
  <path
     d="m 418.91845,516.93336 33.79607,0"
     id="path21347"
     inkscape:connector-curvature="0"
     style="fill:none;stroke:#000000;stroke-width:1.04215753" />
  <path
     d="m 524.58117,505.19391 -71.86665,0"
     id="path21349"
     inkscape:connector-curvature="0"
     style="fill:none;stroke:#000000;stroke-width:1.04215753" />
  <path
     d="m 524.58117,507.42213 -69.59254,0"
     id="path21351"
     inkscape:connector-curvature="0"
     style="fill:none;stroke:#000000;stroke-width:1.04215753" />
  <path
     d="m 452.71452,519.16159 0,-13.96768"
     id="path21353"
     inkscape:connector-curvature="0"
     style="fill:none;stroke:#000000;stroke-width:1.04215753" />
  <path
     d="m 454.98863,519.16159 0,-11.73946"
     id="path21355"
     inkscape:connector-curvature="0"
     style="fill:none;stroke:#000000;stroke-width:1.04215753" />
  <path
     d="m 524.58117,519.16159 0,-11.73946"
     id="path21357"
     inkscape:connector-curvature="0"
     style="fill:none;stroke:#000000;stroke-width:1.04215753" />
  <path
     d="m 526.87636,519.16159 0,-11.73946"
     id="path21359"
     inkscape:connector-curvature="0"
     style="fill:none;stroke:#000000;stroke-width:1.04215753" />
  <path
     d="m 503.41914,376.86452 0,21.02373"
     id="path21361"
     inkscape:connector-curvature="0"
     style="fill:none;stroke:#000000;stroke-width:1.04215753" />
  <path
     d="m 503.41914,407.39949 0,3.40424"
     id="path21363"
     inkscape:connector-curvature="0"
     style="fill:none;stroke:#000000;stroke-width:1.04215753" />
  <path
     d="m 526.87636,233.20574 0,143.65878"
     id="path21365"
     inkscape:connector-curvature="0"
     style="fill:none;stroke:#000000;stroke-width:1.04215753" />
  <path
     d="m 524.58117,235.434 0,141.43052"
     id="path21367"
     inkscape:connector-curvature="0"
     style="fill:none;stroke:#000000;stroke-width:1.04215753" />
  <path
     d="m 503.41914,376.86452 25.0154,0"
     id="path21369"
     inkscape:connector-curvature="0"
     style="fill:none;stroke:#000000;stroke-width:1.04215753" />
  <path
     d="m 505.71433,379.09275 68.32912,0"
     id="path21371"
     inkscape:connector-curvature="0"
     style="fill:none;stroke:#000000;stroke-width:1.04215753" />
  <path
     d="m 503.41914,410.80373 25.0154,0"
     id="path21373"
     inkscape:connector-curvature="0"
     style="fill:none;stroke:#000000;stroke-width:1.04215753" />
  <path
     d="m 505.71433,408.57552 68.32912,0"
     id="path21375"
     inkscape:connector-curvature="0"
     style="fill:none;stroke:#000000;stroke-width:1.04215753" />
  <path
     d="m 505.71433,408.57552 0,-1.17603"
     id="path21377"
     inkscape:connector-curvature="0"
     style="fill:none;stroke:#000000;stroke-width:1.04215753" />
  <path
     d="m 505.71433,397.88825 0,-18.7955"
     id="path21379"
     inkscape:connector-curvature="0"
     style="fill:none;stroke:#000000;stroke-width:1.04215753" />
  <path
     d="m 524.58117,505.19391 0,-94.39018"
     id="path21381"
     inkscape:connector-curvature="0"
     style="fill:none;stroke:#000000;stroke-width:1.04215753" />
  <path
     d="m 505.71433,407.39949 -2.29519,0"
     id="path21383"
     inkscape:connector-curvature="0"
     style="fill:none;stroke:#000000;stroke-width:1.04215753" />
  <path
     d="m 505.71433,397.88825 -2.29519,0"
     id="path21385"
     inkscape:connector-curvature="0"
     style="fill:none;stroke:#000000;stroke-width:1.04215753" />
  <path
     d="m 293.98883,86.906146 -111.95868,0"
     id="path21387"
     inkscape:connector-curvature="0"
     style="fill:none;stroke:#000000;stroke-width:1.04215753" />
  <path
     d="m 291.71472,84.677918 -107.41044,0"
     id="path21389"
     inkscape:connector-curvature="0"
     style="fill:none;stroke:#000000;stroke-width:1.04215753" />
  <path
     d="m 524.58117,75.16669 -69.63464,0"
     id="path21391"
     inkscape:connector-curvature="0"
     style="fill:none;stroke:#000000;stroke-width:1.04215753" />
  <path
     d="m 378.93171,75.16669 -84.94288,0"
     id="path21393"
     inkscape:connector-curvature="0"
     style="fill:none;stroke:#000000;stroke-width:1.04215753" />
  <path
     d="m 182.03015,75.16669 -108.31585,0"
     id="path21395"
     inkscape:connector-curvature="0"
     style="fill:none;stroke:#000000;stroke-width:1.04215753" />
  <path
     d="m 528.43454,71.391081 -458.552566,0"
     id="path21397"
     inkscape:connector-curvature="0"
     style="fill:none;stroke:#000000;stroke-width:1.04215753" />
  <path
     d="m 184.30428,72.917828 -112.864106,0"
     id="path21399"
     inkscape:connector-curvature="0"
     style="fill:none;stroke:#000000;stroke-width:1.04215753" />
  <path
     d="m 85.695585,142.24044 -14.255411,0"
     id="path21401"
     inkscape:connector-curvature="0"
     style="fill:none;stroke:#000000;stroke-width:1.04215753" />
  <path
     d="m 83.421457,144.46868 -11.981283,0"
     id="path21403"
     inkscape:connector-curvature="0"
     style="fill:none;stroke:#000000;stroke-width:1.04215753" />
  <path
     d="m 83.421457,178.63485 -11.981283,0"
     id="path21405"
     inkscape:connector-curvature="0"
     style="fill:none;stroke:#000000;stroke-width:1.04215753" />
  <path
     d="m 83.421457,180.88367 -11.981283,0"
     id="path21407"
     inkscape:connector-curvature="0"
     style="fill:none;stroke:#000000;stroke-width:1.04215753" />
  <path
     d="m 83.421457,267.33067 -11.981283,0"
     id="path21409"
     inkscape:connector-curvature="0"
     style="fill:none;stroke:#000000;stroke-width:1.04215753" />
  <path
     d="m 85.695585,269.55888 -14.255411,0"
     id="path21411"
     inkscape:connector-curvature="0"
     style="fill:none;stroke:#000000;stroke-width:1.04215753" />
  <path
     d="m 85.695585,269.55888 0,-127.31844"
     id="path21413"
     inkscape:connector-curvature="0"
     style="fill:none;stroke:#000000;stroke-width:1.04215753" />
  <path
     d="m 83.421457,267.33067 0,-86.447"
     id="path21415"
     inkscape:connector-curvature="0"
     style="fill:none;stroke:#000000;stroke-width:1.04215753" />
  <path
     d="m 83.421457,178.63485 0,-34.16617"
     id="path21417"
     inkscape:connector-curvature="0"
     style="fill:none;stroke:#000000;stroke-width:1.04215753" />
  <path
     d="m 184.30428,84.677918 0,-11.76009"
     id="path21419"
     inkscape:connector-curvature="0"
     style="fill:none;stroke:#000000;stroke-width:1.04215753" />
  <path
     d="m 182.03015,86.906146 0,-11.739456"
     id="path21421"
     inkscape:connector-curvature="0"
     style="fill:none;stroke:#000000;stroke-width:1.04215753" />
  <path
     d="m 291.71472,84.677918 0,-11.76009"
     id="path21423"
     inkscape:connector-curvature="0"
     style="fill:none;stroke:#000000;stroke-width:1.04215753" />
  <path
     d="m 293.98883,86.906146 0,-11.739456"
     id="path21425"
     inkscape:connector-curvature="0"
     style="fill:none;stroke:#000000;stroke-width:1.04215753" />
  <path
     d="m 291.71472,72.917828 89.49112,0"
     id="path21427"
     inkscape:connector-curvature="0"
     style="fill:none;stroke:#000000;stroke-width:1.04215753" />
  <path
     d="m 378.93171,75.16669 0,70.47799"
     id="path21429"
     inkscape:connector-curvature="0"
     style="fill:none;stroke:#000000;stroke-width:1.04215753" />
  <path
     d="m 381.20584,72.917828 0,11.76009"
     id="path21431"
     inkscape:connector-curvature="0"
     style="fill:none;stroke:#000000;stroke-width:1.04215753" />
  <path
     d="m 381.20584,86.906146 0,56.489684"
     id="path21433"
     inkscape:connector-curvature="0"
     style="fill:none;stroke:#000000;stroke-width:1.04215753" />
  <path
     d="m 381.20584,86.906146 73.74069,0"
     id="path21435"
     inkscape:connector-curvature="0"
     style="fill:none;stroke:#000000;stroke-width:1.04215753" />
  <path
     d="m 381.20584,84.677918 71.44552,0"
     id="path21437"
     inkscape:connector-curvature="0"
     style="fill:none;stroke:#000000;stroke-width:1.04215753" />
  <path
     d="m 452.65136,72.917828 0,11.76009"
     id="path21439"
     inkscape:connector-curvature="0"
     style="fill:none;stroke:#000000;stroke-width:1.04215753" />
  <path
     d="m 454.94653,72.917828 0,13.988318"
     id="path21441"
     inkscape:connector-curvature="0"
     style="fill:none;stroke:#000000;stroke-width:1.04215753" />
  <path
     d="m 452.65136,72.917828 74.225,0"
     id="path21443"
     inkscape:connector-curvature="0"
     style="fill:none;stroke:#000000;stroke-width:1.04215753" />
  <path
     d="m 526.87636,183.52456 -12.00235,0"
     id="path21445"
     inkscape:connector-curvature="0"
     style="fill:none;stroke:#000000;stroke-width:1.04215753" />
  <path
     d="m 524.58117,145.64468 -22.17275,0"
     id="path21447"
     inkscape:connector-curvature="0"
     style="fill:none;stroke:#000000;stroke-width:1.04215753" />
  <path
     d="m 492.70127,145.64468 -16.06628,0"
     id="path21449"
     inkscape:connector-curvature="0"
     style="fill:none;stroke:#000000;stroke-width:1.04215753" />
  <path
     d="m 466.92784,145.64468 -11.98131,0"
     id="path21451"
     inkscape:connector-curvature="0"
     style="fill:none;stroke:#000000;stroke-width:1.04215753" />
  <path
     d="m 452.65136,145.64468 -73.71965,0"
     id="path21453"
     inkscape:connector-curvature="0"
     style="fill:none;stroke:#000000;stroke-width:1.04215753" />
  <path
     d="m 381.20584,143.39583 85.722,0"
     id="path21455"
     inkscape:connector-curvature="0"
     style="fill:none;stroke:#000000;stroke-width:1.04215753" />
  <path
     d="m 476.63499,143.39583 11.98127,0"
     id="path21457"
     inkscape:connector-curvature="0"
     style="fill:none;stroke:#000000;stroke-width:1.04215753" />
  <path
     d="m 524.58117,75.16669 0,68.22914"
     id="path21459"
     inkscape:connector-curvature="0"
     style="fill:none;stroke:#000000;stroke-width:1.04215753" />
  <path
     d="m 528.43454,71.391081 0,449.297249"
     id="path21461"
     inkscape:connector-curvature="0"
     style="fill:none;stroke:#000000;stroke-width:1.04215753" />
  <path
     d="m 526.87636,183.52456 0,-110.606732"
     id="path21463"
     inkscape:connector-curvature="0"
     style="fill:none;stroke:#000000;stroke-width:1.04215753" />
  <path
     d="m 524.58117,181.29633 0,-35.65165"
     id="path21465"
     inkscape:connector-curvature="0"
     style="fill:none;stroke:#000000;stroke-width:1.04215753" />
  <path
     d="m 524.58117,114.5114 -33.66971,0"
     id="path21467"
     inkscape:connector-curvature="0"
     style="fill:none;stroke:#000000;stroke-width:1.04215753" />
  <path
     d="m 488.61626,112.28318 35.96491,0"
     id="path21469"
     inkscape:connector-curvature="0"
     style="fill:none;stroke:#000000;stroke-width:1.04215753" />
  <path
     d="m 452.65136,145.64468 0,8.06703"
     id="path21471"
     inkscape:connector-curvature="0"
     style="fill:none;stroke:#000000;stroke-width:1.04215753" />
  <path
     d="m 454.94653,145.64468 0,8.06703"
     id="path21473"
     inkscape:connector-curvature="0"
     style="fill:none;stroke:#000000;stroke-width:1.04215753" />
  <path
     d="m 488.61626,143.39583 0,-31.11265"
     id="path21475"
     inkscape:connector-curvature="0"
     style="fill:none;stroke:#000000;stroke-width:1.04215753" />
  <path
     d="m 490.91146,143.39583 0,-28.88443"
     id="path21477"
     inkscape:connector-curvature="0"
     style="fill:none;stroke:#000000;stroke-width:1.04215753" />
  <path
     d="m 490.91146,143.39583 1.78981,0"
     id="path21479"
     inkscape:connector-curvature="0"
     style="fill:none;stroke:#000000;stroke-width:1.04215753" />
  <path
     d="m 502.40842,143.39583 22.17275,0"
     id="path21481"
     inkscape:connector-curvature="0"
     style="fill:none;stroke:#000000;stroke-width:1.04215753" />
  <path
     d="m 452.65136,173.20868 0,42.02684"
     id="path21483"
     inkscape:connector-curvature="0"
     style="fill:none;stroke:#000000;stroke-width:1.04215753" />
  <path
     d="m 452.65136,181.29633 48.43048,0"
     id="path21485"
     inkscape:connector-curvature="0"
     style="fill:none;stroke:#000000;stroke-width:1.04215753" />
  <path
     d="m 510.81006,181.29633 13.77111,0"
     id="path21487"
     inkscape:connector-curvature="0"
     style="fill:none;stroke:#000000;stroke-width:1.04215753" />
  <path
     d="m 454.94653,183.52456 46.13531,0"
     id="path21489"
     inkscape:connector-curvature="0"
     style="fill:none;stroke:#000000;stroke-width:1.04215753" />
  <path
     d="m 510.81006,183.52456 1.78983,0"
     id="path21491"
     inkscape:connector-curvature="0"
     style="fill:none;stroke:#000000;stroke-width:1.04215753" />
  <path
     d="m 452.65136,215.23552 59.94853,0"
     id="path21493"
     inkscape:connector-curvature="0"
     style="fill:none;stroke:#000000;stroke-width:1.04215753" />
  <path
     d="m 454.94653,213.00729 57.65336,0"
     id="path21495"
     inkscape:connector-curvature="0"
     style="fill:none;stroke:#000000;stroke-width:1.04215753" />
  <path
     d="m 454.94653,213.00729 0,-29.48273"
     id="path21497"
     inkscape:connector-curvature="0"
     style="fill:none;stroke:#000000;stroke-width:1.04215753" />
  <path
     d="m 454.94653,173.20868 -2.29517,0"
     id="path21499"
     inkscape:connector-curvature="0"
     style="fill:none;stroke:#000000;stroke-width:1.04215753" />
  <path
     d="m 454.94653,153.71171 -2.29517,0"
     id="path21501"
     inkscape:connector-curvature="0"
     style="fill:none;stroke:#000000;stroke-width:1.04215753" />
  <path
     d="m 454.94653,173.20868 0,8.08765"
     id="path21503"
     inkscape:connector-curvature="0"
     style="fill:none;stroke:#000000;stroke-width:1.04215753" />
  <path
     d="m 512.59989,235.434 0,-20.19848"
     id="path21505"
     inkscape:connector-curvature="0"
     style="fill:none;stroke:#000000;stroke-width:1.04215753" />
  <path
     d="m 512.59989,213.00729 0,-29.48273"
     id="path21507"
     inkscape:connector-curvature="0"
     style="fill:none;stroke:#000000;stroke-width:1.04215753" />
  <path
     d="m 514.87401,233.20574 0,-49.68118"
     id="path21509"
     inkscape:connector-curvature="0"
     style="fill:none;stroke:#000000;stroke-width:1.04215753" />
  <path
     d="m 526.87636,233.20574 -12.00235,0"
     id="path21511"
     inkscape:connector-curvature="0"
     style="fill:none;stroke:#000000;stroke-width:1.04215753" />
  <path
     d="m 524.58117,235.434 -11.98128,0"
     id="path21513"
     inkscape:connector-curvature="0"
     style="fill:none;stroke:#000000;stroke-width:1.04215753" />
  <path
     d="m 502.40842,143.39583 0,2.24885"
     id="path21515"
     inkscape:connector-curvature="0"
     style="fill:none;stroke:#000000;stroke-width:1.04215753" />
  <path
     d="m 492.70127,143.39583 0,2.24885"
     id="path21517"
     inkscape:connector-curvature="0"
     style="fill:none;stroke:#000000;stroke-width:1.04215753" />
  <path
     d="m 510.81006,181.29633 0,2.22823"
     id="path21519"
     inkscape:connector-curvature="0"
     style="fill:none;stroke:#000000;stroke-width:1.04215753" />
  <path
     d="m 501.08184,181.29633 0,2.22823"
     id="path21521"
     inkscape:connector-curvature="0"
     style="fill:none;stroke:#000000;stroke-width:1.04215753" />
  <path
     d="m 510.45212,172.48658 -0.84228,0.0206 m 0,0 -0.82122,0.1238 m 0,0 -0.80015,0.18567 m 0,0 -0.80017,0.24758 m 0,0 -0.75803,0.33012 m 0,0 -0.71594,0.41265 m 0,0 -0.69486,0.45388 m 0,0 -0.63171,0.5158 m 0,0 -0.58958,0.57768 m 0,0 -0.52642,0.61894 m 0,0 -0.46326,0.68086 m 0,0 -0.42114,0.70146 m 0,0 -0.33689,0.74276 m 0,0 -0.25268,0.78401 m 0,0 -0.18953,0.78399 m 0,0 -0.12633,0.80465 m 0,0 -0.021,0.82528"
     id="path21523"
     inkscape:connector-curvature="0"
     style="fill:none;stroke:#000000;stroke-width:1.04215753" />
  <path
     d="m 454.94653,153.71171 0,19.14622"
     id="path21525"
     inkscape:connector-curvature="0"
     style="fill:none;stroke:#000000;stroke-width:1.04215753" />
  <path
     d="m 454.56753,172.85793 0,-9.38741"
     id="path21527"
     inkscape:connector-curvature="0"
     style="fill:none;stroke:#000000;stroke-width:1.04215753" />
  <path
     d="m 452.65136,173.20868 0,-1.67115 m 0,-0.74276 0,-1.46484 m 0,-0.72213 0,-1.46484 m 0,-0.74275 0,-1.46484 m 0,-0.74275 0,-1.46486 m 0,-0.74274 0,-1.46486 m 0,-0.72209 0,-1.46487 m 0,-0.74274 0,-1.46485 m 0,-0.74275 0,-1.67115"
     id="path21529"
     inkscape:connector-curvature="0"
     style="fill:none;stroke:#000000;stroke-width:1.04215753" />
  <path
     d="m 452.65136,172.85793 2.29517,0"
     id="path21531"
     inkscape:connector-curvature="0"
     style="fill:none;stroke:#000000;stroke-width:1.04215753" />
  <path
     d="m 454.94653,173.20868 0,-1.38231 m 0,-0.72211 0,-1.4855 m 0,-0.72212 0,-1.46484 m 0,-0.74275 0,-1.46483 m 0,-0.74277 0,-1.36167"
     id="path21533"
     inkscape:connector-curvature="0"
     style="fill:none;stroke:#000000;stroke-width:1.04215753" />
  <path
     d="m 464.52736,172.85793 -9.58083,0"
     id="path21535"
     inkscape:connector-curvature="0"
     style="fill:none;stroke:#000000;stroke-width:1.04215753" />
  <path
     d="m 454.94653,163.47052 0,-9.40808"
     id="path21537"
     inkscape:connector-curvature="0"
     style="fill:none;stroke:#000000;stroke-width:1.04215753" />
  <path
     d="m 454.56753,154.06244 0,9.40808"
     id="path21539"
     inkscape:connector-curvature="0"
     style="fill:none;stroke:#000000;stroke-width:1.04215753" />
  <path
     d="m 452.65136,154.06244 2.29517,0"
     id="path21541"
     inkscape:connector-curvature="0"
     style="fill:none;stroke:#000000;stroke-width:1.04215753" />
  <path
     d="m 464.52736,154.06244 -9.58083,0"
     id="path21543"
     inkscape:connector-curvature="0"
     style="fill:none;stroke:#000000;stroke-width:1.04215753" />
  <path
     d="m 454.94653,163.47052 0.88438,-0.0411 m 0,0 0.86335,-0.12379 m 0,0 0.8633,-0.20631 m 0,0 0.8423,-0.26821 m 0,0 0.8212,-0.35074 m 0,0 0.75805,-0.43328 m 0,0 0.73697,-0.47453 m 0,0 0.67383,-0.55704 m 0,0 0.6317,-0.61896 m 0,0 0.56854,-0.66023 m 0,0 0.50534,-0.7221 m 0,0 0.42114,-0.76338 m 0,0 0.35798,-0.784 m 0,0 0.29479,-0.82526 m 0,0 0.1895,-0.84589 m 0,0 0.12633,-0.86656 m 0,0 0.042,-0.86653"
     id="path21545"
     inkscape:connector-curvature="0"
     style="fill:none;stroke:#000000;stroke-width:1.04215753" />
  <path
     d="m 464.52736,172.85793 -0.042,-0.86651 m 0,0 -0.12634,-0.86655 m 0,0 -0.18948,-0.84589 m 0,0 -0.29481,-0.80463 m 0,0 -0.35797,-0.80466 m 0,0 -0.42113,-0.76336 m 0,0 -0.50536,-0.70148 m 0,0 -0.56852,-0.68085 m 0,0 -0.63172,-0.61895 m 0,0 -0.67382,-0.53643 m 0,0 -0.73697,-0.49516 m 0,0 -0.75806,-0.43327 m 0,0 -0.8212,-0.35073 m 0,0 -0.84229,-0.26821 m 0,0 -0.86331,-0.2063 m 0,0 -0.86335,-0.10318 m 0,0 -0.88436,-0.0411"
     id="path21547"
     inkscape:connector-curvature="0"
     style="fill:none;stroke:#000000;stroke-width:1.04215753" />
  <path
     d="m 502.05047,145.64468 -8.99121,0"
     id="path21549"
     inkscape:connector-curvature="0"
     style="fill:none;stroke:#000000;stroke-width:1.04215753" />
  <path
     d="m 493.05926,145.27333 8.99121,0"
     id="path21551"
     inkscape:connector-curvature="0"
     style="fill:none;stroke:#000000;stroke-width:1.04215753" />
  <path
     d="m 492.70127,143.39583 1.116,0 m 0.73701,0 1.49501,0 m 0.75804,0 1.49502,0 m 0.75805,0 1.49503,0 m 0.73699,0 1.116,0"
     id="path21553"
     inkscape:connector-curvature="0"
     style="fill:none;stroke:#000000;stroke-width:1.04215753" />
  <path
     d="m 493.05926,143.39583 0,2.24885"
     id="path21555"
     inkscape:connector-curvature="0"
     style="fill:none;stroke:#000000;stroke-width:1.04215753" />
  <path
     d="m 502.05047,145.64468 0,-2.24885"
     id="path21557"
     inkscape:connector-curvature="0"
     style="fill:none;stroke:#000000;stroke-width:1.04215753" />
  <path
     d="m 492.70127,145.64468 1.116,0 m 0.73701,0 1.49501,0 m 0.75804,0 1.49502,0 m 0.75805,0 1.49503,0 m 0.73699,0 1.116,0"
     id="path21559"
     inkscape:connector-curvature="0"
     style="fill:none;stroke:#000000;stroke-width:1.04215753" />
  <path
     d="m 493.05926,154.45444 0,-8.80976"
     id="path21561"
     inkscape:connector-curvature="0"
     style="fill:none;stroke:#000000;stroke-width:1.04215753" />
  <path
     d="m 493.05926,154.45444 0.82118,-0.0411 m 0,0 0.82122,-0.1238 m 0,0 0.82121,-0.18565 m 0,0 0.77911,-0.2476 m 0,0 0.75804,-0.3301 m 0,0 0.73697,-0.39201 m 0,0 0.67384,-0.47453 m 0,0 0.65275,-0.5158 m 0,0 0.58959,-0.57768 m 0,0 0.52639,-0.61897 m 0,0 0.46327,-0.68083 m 0,0 0.40007,-0.70148 m 0,0 0.33692,-0.74275 m 0,0 0.27374,-0.78401 m 0,0 0.18951,-0.784 m 0,0 0.10529,-0.80464 m 0,0 0.042,-0.80464"
     id="path21563"
     inkscape:connector-curvature="0"
     style="fill:none;stroke:#000000;stroke-width:1.04215753" />
  <path
     d="m 7.7224832,590.2998 300.4164668,0"
     id="path21565"
     inkscape:connector-curvature="0"
     style="fill:none;stroke:#000000;stroke-width:1.04215753" />
  <path
     d="m 11.554809,586.54484 292.751821,0"
     id="path21567"
     inkscape:connector-curvature="0"
     style="fill:none;stroke:#000000;stroke-width:1.04215753" />
  <path
     d="m 380.06878,590.2998 219.39014,0"
     id="path21569"
     inkscape:connector-curvature="0"
     style="fill:none;stroke:#000000;stroke-width:1.04215753" />
  <path
     d="m 383.9011,586.54484 211.72551,0"
     id="path21571"
     inkscape:connector-curvature="0"
     style="fill:none;stroke:#000000;stroke-width:1.04215753" />
  <path
     d="m 308.13895,579.71573 71.92983,0"
     id="path21573"
     inkscape:connector-curvature="0"
     style="fill:none;stroke:#000000;stroke-width:1.04215753" />
  <path
     d="m 304.30663,575.96076 79.59447,0"
     id="path21575"
     inkscape:connector-curvature="0"
     style="fill:none;stroke:#000000;stroke-width:1.04215753" />
  <path
     d="m 308.13895,590.2998 0,-10.58407"
     id="path21577"
     inkscape:connector-curvature="0"
     style="fill:none;stroke:#000000;stroke-width:1.04215753" />
  <path
     d="m 304.30663,586.54484 0,-10.58408"
     id="path21579"
     inkscape:connector-curvature="0"
     style="fill:none;stroke:#000000;stroke-width:1.04215753" />
  <path
     d="m 380.06878,590.2998 0,-10.58407"
     id="path21581"
     inkscape:connector-curvature="0"
     style="fill:none;stroke:#000000;stroke-width:1.04215753" />
  <path
     d="m 383.9011,586.54484 0,-10.58408"
     id="path21583"
     inkscape:connector-curvature="0"
     style="fill:none;stroke:#000000;stroke-width:1.04215753" />
  <path
     d="m 599.45892,590.2998 0,-214.96202"
     id="path21585"
     inkscape:connector-curvature="0"
     style="fill:none;stroke:#000000;stroke-width:1.04215753" />
  <path
     d="m 595.62661,586.54484 0,-207.45209"
     id="path21587"
     inkscape:connector-curvature="0"
     style="fill:none;stroke:#000000;stroke-width:1.04215753" />
  <path
     d="m 599.45892,375.33778 -10.80208,0"
     id="path21589"
     inkscape:connector-curvature="0"
     style="fill:none;stroke:#000000;stroke-width:1.04215753" />
  <path
     d="m 595.62661,379.09275 -10.80212,0"
     id="path21591"
     inkscape:connector-curvature="0"
     style="fill:none;stroke:#000000;stroke-width:1.04215753" />
  <path
     d="m 588.65684,375.33778 0,-70.478"
     id="path21593"
     inkscape:connector-curvature="0"
     style="fill:none;stroke:#000000;stroke-width:1.04215753" />
  <path
     d="m 584.82449,379.09275 0,-77.98796"
     id="path21595"
     inkscape:connector-curvature="0"
     style="fill:none;stroke:#000000;stroke-width:1.04215753" />
  <path
     d="m 588.65684,304.85978 10.80208,0"
     id="path21597"
     inkscape:connector-curvature="0"
     style="fill:none;stroke:#000000;stroke-width:1.04215753" />
  <path
     d="m 584.82449,301.10479 10.80212,0"
     id="path21599"
     inkscape:connector-curvature="0"
     style="fill:none;stroke:#000000;stroke-width:1.04215753" />
  <path
     d="m 599.45892,304.85978 0,-304.33870344"
     id="path21601"
     inkscape:connector-curvature="0"
     style="fill:none;stroke:#000000;stroke-width:1.04215753" />
  <path
     d="m 595.62661,301.10479 0,-296.8287373"
     id="path21603"
     inkscape:connector-curvature="0"
     style="fill:none;stroke:#000000;stroke-width:1.04215753" />
  <path
     d="m 0.52107877,285.48658 0,-284.0370757"
     id="path21605"
     inkscape:connector-curvature="0"
     style="fill:none;stroke:#000000;stroke-width:1.04215753" />
  <path
     d="m 4.3534052,281.71098 0,-276.5064996"
     id="path21607"
     inkscape:connector-curvature="0"
     style="fill:none;stroke:#000000;stroke-width:1.04215753" />
  <path
     d="m 0.52107877,285.48658 7.20140443,0"
     id="path21609"
     inkscape:connector-curvature="0"
     style="fill:none;stroke:#000000;stroke-width:1.04215753" />
  <path
     d="m 4.3534052,281.71098 7.2014038,0"
     id="path21611"
     inkscape:connector-curvature="0"
     style="fill:none;stroke:#000000;stroke-width:1.04215753" />
  <path
     d="m 0.52107877,1.4495043 305.09108123,0"
     id="path21613"
     inkscape:connector-curvature="0"
     style="fill:none;stroke:#000000;stroke-width:1.04215753" />
  <path
     d="m 4.3534052,5.2044804 305.0910848,0"
     id="path21615"
     inkscape:connector-curvature="0"
     style="fill:none;stroke:#000000;stroke-width:1.04215753" />
  <path
     d="m 305.50687,0.52107656 293.95205,0"
     id="path21617"
     inkscape:connector-curvature="0"
     style="fill:none;stroke:#000000;stroke-width:1.04215753" />
  <path
     d="m 309.33919,4.2760527 286.28742,0"
     id="path21619"
     inkscape:connector-curvature="0"
     style="fill:none;stroke:#000000;stroke-width:1.04215753" />
  <path
     d="M 309.33919,4.2760527 305.50687,0.52107656"
     id="path21621"
     inkscape:connector-curvature="0"
     style="fill:none;stroke:#000000;stroke-width:1.04215753" />
  <path
     d="M 309.44449,5.2044804 305.61216,1.4495043"
     id="path21623"
     inkscape:connector-curvature="0"
     style="fill:none;stroke:#000000;stroke-width:1.04215753" />
  <path
     d="m 378.93171,145.64468 0,23.95344 m 0,0 -208.84073,0 m 0,0 0,252.9038 m 0,0 258.11352,0 m 0,0 0,-252.9038 m 0,0 -49.14644,0 m 0,0 0,-23.95344 m 0,0 73.5933,0 m 0,0 0,69.59084 m 0,0 59.94853,0 m 0,0 0,20.19848 m 0,0 11.98128,0 m 0,0 0,141.43052 m 0,0 -21.16203,0 m 0,0 0,33.93921 m 0,0 21.16203,0 m 0,0 0,94.39018 m 0,0 -71.86665,0 m 0,0 0,11.73945 m 0,0 -33.79607,0 m 0,0 0,-11.73945 m 0,0 -75.88848,0 m 0,0 0,11.73945 m 0,0 -82.83721,0 m 0,0 0,-11.73945 m 0,0 -82.47923,0 m 0,0 0,11.73945 m 0,0 -30.44805,0 m 0,0 0,-11.73945 m 0,0 -73.55118,0 m 0,0 0,-235.63503 m 0,0 11.981285,0 m 0,0 0,-127.31844 m 0,0 -11.981285,0 m 0,0 0,-67.07375 m 0,0 108.31585,0 m 0,0 0,11.739456 m 0,0 111.95868,0 m 0,0 0,-11.739456 m 0,0 84.94288,0 m 0,0 0,70.47799"
     id="path21625"
     inkscape:connector-curvature="0"
     style="fill:none;stroke:#000000;stroke-width:1.04215753" />
  <path
     d="m 121.66049,112.55138 0.23161,-0.14441 m 0,0 0.33691,-0.41264 m 0,0 0,2.9297 m 2.96902,-2.9297 -1.13708,2.9297 m -0.46325,-2.9297 1.60033,0 m 0.80014,0.70147 0,-0.14442 m 0,0 0.10529,-0.28884 m 0,0 0.12635,-0.14442 m 0,0 0.23163,-0.12377 m 0,0 0.44219,0 m 0,0 0.23162,0.12377 m 0,0 0.12633,0.14442 m 0,0 0.10528,0.28884 m 0,0 0,0.26822 m 0,0 -0.10528,0.28885 m 0,0 -0.23161,0.41262 m 0,0 -1.13707,1.40296 m 0,0 1.60032,0 m 1.36868,-2.9297 -0.35796,0.12377 m 0,0 -0.23163,0.43326 m 0,0 -0.10528,0.70149 m 0,0 0,0.41262 m 0,0 0.10528,0.70148 m 0,0 0.23163,0.41264 m 0,0 0.35796,0.14441 m 0,0 0.21056,0 m 0,0 0.35798,-0.14441 m 0,0 0.23161,-0.41264 m 0,0 0.1053,-0.70148 m 0,0 0,-0.41262 m 0,0 -0.1053,-0.70149 m 0,0 -0.23161,-0.43326 m 0,0 -0.35798,-0.12377 m 0,0 -0.21056,0"
     id="path21627"
     inkscape:connector-curvature="0"
     style="fill:none;stroke:#000000;stroke-width:1.04215753" />
  <path
     d="m 476.63499,143.39583 0,2.24885"
     id="path21629"
     inkscape:connector-curvature="0"
     style="fill:none;stroke:#000000;stroke-width:1.04215753" />
  <path
     d="m 466.92784,143.39583 0,2.24885"
     id="path21631"
     inkscape:connector-curvature="0"
     style="fill:none;stroke:#000000;stroke-width:1.04215753" />
  <path
     d="m 476.27702,145.64468 -8.99123,0"
     id="path21633"
     inkscape:connector-curvature="0"
     style="fill:none;stroke:#000000;stroke-width:1.04215753" />
  <path
     d="m 467.28579,145.27333 8.99123,0"
     id="path21635"
     inkscape:connector-curvature="0"
     style="fill:none;stroke:#000000;stroke-width:1.04215753" />
  <path
     d="m 466.92784,143.39583 1.116,0 m 0.73697,0 1.49504,0 m 0.75803,0 1.49504,0 m 0.75804,0 1.49505,0 m 0.73696,0 1.11602,0"
     id="path21637"
     inkscape:connector-curvature="0"
     style="fill:none;stroke:#000000;stroke-width:1.04215753" />
  <path
     d="m 467.28579,143.39583 0,2.24885"
     id="path21639"
     inkscape:connector-curvature="0"
     style="fill:none;stroke:#000000;stroke-width:1.04215753" />
  <path
     d="m 476.27702,145.64468 0,-2.24885"
     id="path21641"
     inkscape:connector-curvature="0"
     style="fill:none;stroke:#000000;stroke-width:1.04215753" />
  <path
     d="m 466.92784,145.64468 1.116,0 m 0.73697,0 1.49504,0 m 0.75803,0 1.49504,0 m 0.75804,0 1.49505,0 m 0.73696,0 1.11602,0"
     id="path21643"
     inkscape:connector-curvature="0"
     style="fill:none;stroke:#000000;stroke-width:1.04215753" />
  <path
     d="m 467.28579,154.45444 0,-8.80976"
     id="path21645"
     inkscape:connector-curvature="0"
     style="fill:none;stroke:#000000;stroke-width:1.04215753" />
  <path
     d="m 467.28579,154.45444 0.8212,-0.0411 m 0,0 0.82122,-0.1238 m 0,0 0.82122,-0.18565 m 0,0 0.77909,-0.2476 m 0,0 0.75804,-0.3301 m 0,0 0.73699,-0.39201 m 0,0 0.67382,-0.47453 m 0,0 0.65276,-0.5158 m 0,0 0.5896,-0.57768 m 0,0 0.52642,-0.61897 m 0,0 0.46323,-0.68083 m 0,0 0.40009,-0.70148 m 0,0 0.33689,-0.74275 m 0,0 0.27374,-0.78401 m 0,0 0.18951,-0.784 m 0,0 0.1053,-0.80464 m 0,0 0.042,-0.80464"
     id="path21647"
     inkscape:connector-curvature="0"
     style="fill:none;stroke:#000000;stroke-width:1.04215753" />
  <path
     d="m 490.91146,143.39583 33.66971,0 m 0,0 0,-28.88443 m 0,0 -33.66971,0 m 0,0 0,28.88443"
     id="path21649"
     inkscape:connector-curvature="0"
     style="fill:none;stroke:#000000;stroke-width:1.04215753" />
  <path
     d="m 454.94653,181.29633 69.63464,0 m 0,0 0,-35.65165 m 0,0 -69.63464,0 m 0,0 0,35.65165"
     id="path21651"
     inkscape:connector-curvature="0"
     style="fill:none;stroke:#000000;stroke-width:1.04215753" />
  <path
     d="m 502.91379,126.35402 0.23162,-0.14443 m 0,0 0.33691,-0.41262 m 0,0 0,2.92969 m 2.96899,-2.92969 -1.13705,2.92969 m -0.46326,-2.92969 1.60031,0 m 2.27414,0 -1.13707,2.92969 m -0.44218,-2.92969 1.57925,0 m 0.80017,0 0,2.92969 m 0,-1.54737 0.23159,-0.26821 m 0,0 0.23165,-0.14443 m 0,0 0.33691,0 m 0,0 0.23162,0.14443 m 0,0 0.23161,0.26821 m 0,0 0.10531,0.43325 m 0,0 0,0.26823 m 0,0 -0.10531,0.43326 m 0,0 -0.23161,0.2682 m 0,0 -0.23162,0.14443 m 0,0 -0.33691,0 m 0,0 -0.23165,-0.14443 m 0,0 -0.23159,-0.2682"
     id="path21653"
     inkscape:connector-curvature="0"
     style="fill:none;stroke:#000000;stroke-width:1.04215753" />
  <path
     d="m 484.29963,162.68649 0.23163,-0.14443 m 0,0 0.33692,-0.41261 m 0,0 0,2.92969 m 2.96898,-2.92969 -1.13705,2.92969 m -0.46325,-2.92969 1.6003,0 m 1.03179,0.55704 0.23163,-0.14443 m 0,0 0.33688,-0.41261 m 0,0 0,2.92969 m 2.06358,-2.92969 -0.35797,0.14442 m 0,0 -0.21056,0.41262 m 0,0 -0.12633,0.70148 m 0,0 0,0.41265 m 0,0 0.12633,0.70148 m 0,0 0.21056,0.43327 m 0,0 0.35797,0.12378 m 0,0 0.23163,0 m 0,0 0.33689,-0.12378 m 0,0 0.23163,-0.43327 m 0,0 0.1053,-0.70148 m 0,0 0,-0.41265 m 0,0 -0.1053,-0.70148 m 0,0 -0.23163,-0.41262 m 0,0 -0.33689,-0.14442 m 0,0 -0.23163,0"
     id="path21655"
     inkscape:connector-curvature="0"
     style="fill:none;stroke:#000000;stroke-width:1.04215753" />
  <path
     d="m 503.41914,398.23902 0,8.80973"
     id="path21657"
     inkscape:connector-curvature="0"
     style="fill:none;stroke:#000000;stroke-width:1.04215753" />
  <path
     d="m 503.81923,407.04875 0,-8.80973"
     id="path21659"
     inkscape:connector-curvature="0"
     style="fill:none;stroke:#000000;stroke-width:1.04215753" />
  <path
     d="m 505.71433,407.39949 0,-1.07285 m 0,-0.74275 0,-1.46486 m 0,-0.74271 0,-1.46487 m 0,-0.74275 0,-1.46484 m 0,-0.72213 0,-1.09348"
     id="path21661"
     inkscape:connector-curvature="0"
     style="fill:none;stroke:#000000;stroke-width:1.04215753" />
  <path
     d="m 505.71433,407.04875 -2.29519,0"
     id="path21663"
     inkscape:connector-curvature="0"
     style="fill:none;stroke:#000000;stroke-width:1.04215753" />
  <path
     d="m 503.41914,398.23902 2.29519,0"
     id="path21665"
     inkscape:connector-curvature="0"
     style="fill:none;stroke:#000000;stroke-width:1.04215753" />
  <path
     d="m 503.41914,407.39949 0,-1.07285 m 0,-0.74275 0,-1.46486 m 0,-0.74271 0,-1.46487 m 0,-0.74275 0,-1.46484 m 0,-0.72213 0,-1.09348"
     id="path21667"
     inkscape:connector-curvature="0"
     style="fill:none;stroke:#000000;stroke-width:1.04215753" />
  <path
     d="m 494.42792,407.04875 8.99122,0"
     id="path21669"
     inkscape:connector-curvature="0"
     style="fill:none;stroke:#000000;stroke-width:1.04215753" />
  <path
     d="m 503.41914,398.23902 -0.82121,0.0411 m 0,0 -0.8212,0.10317 m 0,0 -0.80017,0.18568 m 0,0 -0.80015,0.26822 m 0,0 -0.75803,0.33011 m 0,0 -0.71593,0.392 m 0,0 -0.69489,0.45389 m 0,0 -0.6317,0.53643 m 0,0 -0.58958,0.55706 m 0,0 -0.5264,0.63959 m 0,0 -0.48433,0.66022 m 0,0 -0.40007,0.7221 m 0,0 -0.33691,0.74274 m 0,0 -0.25269,0.76338 m 0,0 -0.1895,0.80465 m 0,0 -0.12633,0.80463 m 0,0 -0.042,0.80463"
     id="path21671"
     inkscape:connector-curvature="0"
     style="fill:none;stroke:#000000;stroke-width:1.04215753" />
  <path
     d="m 574.04345,408.57552 0,-29.48277"
     id="path21673"
     inkscape:connector-curvature="0"
     style="fill:none;stroke:#000000;stroke-width:1.04215753" />
  <path
     d="m 505.71433,379.09275 68.32912,0 m 0,0 0,29.48277 m 0,0 -68.32912,0 m 0,0 0,-29.48277"
     id="path21675"
     inkscape:connector-curvature="0"
     style="fill:none;stroke:#000000;stroke-width:1.04215753" />
  <path
     d="m 539.6999,392.89538 0.23165,-0.14441 m 0,0 0.3369,-0.41266 m 0,0 0,2.92972 m 2.96901,-2.92972 -1.13708,2.92972 m -0.46325,-2.92972 1.60033,0 m 0.92648,0 1.24233,0 m 0,0 -0.67379,1.11412 m 0,0 0.33691,0 m 0,0 0.23162,0.14443 m 0,0 0.10529,0.14441 m 0,0 0.12634,0.41265 m 0,0 0,0.28884 m 0,0 -0.12634,0.41266 m 0,0 -0.21057,0.26819 m 0,0 -0.35795,0.14442 m 0,0 -0.33692,0 m 0,0 -0.33689,-0.14442 m 0,0 -0.12634,-0.12379 m 0,0 -0.10529,-0.28884 m 2.96898,-2.37268 -0.33689,0.14443 m 0,0 -0.23163,0.41265 m 0,0 -0.12634,0.70146 m 0,0 0,0.41264 m 0,0 0.12634,0.7015 m 0,0 0.23163,0.41263 m 0,0 0.33689,0.1444 m 0,0 0.23164,0 m 0,0 0.33692,-0.1444 m 0,0 0.2316,-0.41263 m 0,0 0.1053,-0.7015 m 0,0 0,-0.41264 m 0,0 -0.1053,-0.70146 m 0,0 -0.2316,-0.41265 m 0,0 -0.33692,-0.14443 m 0,0 -0.23164,0"
     id="path21677"
     inkscape:connector-curvature="0"
     style="fill:none;stroke:#000000;stroke-width:1.04215753" />
  <path
     d="m 69.881974,71.391081 458.552566,0 m 0,0 0,449.297249 m 0,0 -458.552566,0 m 0,0 0,-449.297249"
     id="path21679"
     inkscape:connector-curvature="0"
     style="fill:none;stroke:#000000;stroke-width:1.04215753" />
  <path
     d="m 502.91379,132.02774 -0.29478,0 0,-1.83622 -0.042,0.0412 -0.1474,0.10312 -0.0842,0.0412 -0.0842,0.0618 -0.14741,0.0619 -0.0842,0.0206 0,-0.26819 0.12633,-0.0619 0.21058,-0.12376 0.1053,-0.0825 0.0842,-0.0826 0.12634,-0.16506 0.042,-0.0825 0.18952,0 0,2.37265 z"
     id="path21681"
     inkscape:connector-curvature="0"
     style="fill:#000000;fill-rule:evenodd" />
  <path
     d="m 503.69289,129.9852 0,-0.28885 1.53716,0 0,0.22696 -0.1053,0.12376 -0.23161,0.30947 -0.10531,0.20632 -0.10531,0.20631 -0.18951,0.39201 -0.042,0.20631 -0.0633,0.16505 -0.042,0.30949 -0.0211,0.18567 -0.29479,0 0,-0.14441 0.0633,-0.3301 0.042,-0.20634 0.0633,-0.18567 0.14738,-0.39201 0.10531,-0.16505 0.0842,-0.18569 0.21057,-0.30948 0.12634,-0.12375 -1.17916,0 z"
     id="path21683"
     inkscape:connector-curvature="0"
     style="fill:#000000;fill-rule:evenodd" />
  <path
     d="m 505.69328,132.02774 0,-0.3301 0.33691,0 0,0.3301 -0.33691,0 z"
     id="path21685"
     inkscape:connector-curvature="0"
     style="fill:#000000;fill-rule:evenodd" />
  <path
     d="m 506.47238,130.87238 0,-0.22697 0.042,-0.3301 0.042,-0.12377 0.042,-0.12375 0.12634,-0.20632 0.0842,-0.0618 0.0842,-0.0619 0.21059,-0.0826 0.1474,0 0.0842,0 0.16846,0.0412 0.0842,0.0412 0.0633,0.0412 0.12633,0.10312 0.042,0.0825 0.042,0.0618 0.0842,0.18567 0.021,0.10313 0.021,0.10314 0.042,0.26821 0,0.18569 0,0.20631 -0.042,0.33011 -0.042,0.12376 -0.042,0.12377 -0.14738,0.2063 -0.0843,0.0619 -0.0842,0.0618 -0.21057,0.0826 -0.12633,0 -0.1895,0 -0.27376,-0.12376 -0.0843,-0.12376 -0.12633,-0.14442 -0.1053,-0.47453 0,-0.33008 0,0 z m 0.29481,0 0,0.28884 0.0633,0.37136 0.0633,0.10312 0.0843,0.0826 0.16846,0.10313 0.10531,0 0.0842,0 0.16846,-0.10313 0.0843,-0.0826 0.0633,-0.10312 0.0633,-0.37136 0,-0.28884 0,-0.3095 -0.0633,-0.37136 -0.0633,-0.10312 -0.0633,-0.0826 -0.18953,-0.10312 -0.1053,0 -0.0843,0 -0.16845,0.0826 -0.0632,0.0825 -0.0843,0.10313 -0.0633,0.41263 0,0.28885 0,0 z"
     id="path21687"
     inkscape:connector-curvature="0"
     style="fill:#000000;fill-rule:evenodd" />
  <path
     d="m 508.34642,129.9852 0,-0.28885 1.53714,0 0,0.22696 -0.1053,0.12376 -0.23164,0.30947 -0.1053,0.20632 -0.10531,0.20631 -0.18951,0.39201 -0.0633,0.20631 -0.042,0.16505 -0.042,0.30949 -0.021,0.18567 -0.29478,0 0,-0.14441 0.0633,-0.3301 0.042,-0.20634 0.0633,-0.18567 0.14741,-0.39201 0.0842,-0.16505 0.10531,-0.18569 0.21056,-0.30948 0.1053,-0.12375 -1.15811,0 z"
     id="path21689"
     inkscape:connector-curvature="0"
     style="fill:#000000;fill-rule:evenodd" />
  <path
     d="m 510.53632,132.02774 -0.27374,0 0,-2.35202 0.29481,0 0,0.82528 0.0843,-0.10312 0.25268,-0.12378 0.1474,0 0.0633,0 0.16843,0.0412 0.0632,0.0206 0.0633,0.0412 0.12633,0.0826 0.042,0.0619 0.042,0.0618 0.0843,0.12376 0.021,0.0826 0.021,0.0825 0.042,0.18565 0,0.0826 0,0.22695 -0.12634,0.33011 -0.1053,0.12376 -0.1053,0.12377 -0.27375,0.12376 -0.14739,0 -0.1474,0 -0.25267,-0.14442 -0.0843,-0.12376 0,0.22694 z m 0,-0.86652 0,0.14442 0.042,0.22694 0.042,0.0618 0.0633,0.12377 0.1895,0.10312 0.12634,0 0.0842,0 0.16846,-0.0826 0.0842,-0.0826 0.0633,-0.0825 0.0633,-0.24759 0,-0.16504 0,-0.16507 -0.0633,-0.24757 -0.0633,-0.0826 -0.0633,-0.0618 -0.16845,-0.0825 -0.10531,0 -0.0842,0 -0.16844,0.0825 -0.0632,0.0826 -0.0843,0.0825 -0.0633,0.22695 0,0.16506 0,0 z"
     id="path21691"
     inkscape:connector-curvature="0"
     style="fill:#000000;fill-rule:evenodd" />
  <path
     d="m 448.33472,118.22512 -0.2948,0 0,-1.83623 -0.042,0.0412 -0.14738,0.10312 -0.0842,0.0412 -0.0843,0.0619 -0.14738,0.0618 -0.0633,0.0206 0,-0.26821 0.10531,-0.0619 0.23163,-0.12375 0.0842,-0.0826 0.0842,-0.0825 0.14739,-0.16506 0.021,-0.0826 0.1895,0 0,2.37265 z"
     id="path21693"
     inkscape:connector-curvature="0"
     style="fill:#000000;fill-rule:evenodd" />
  <path
     d="m 449.11381,116.18257 0,-0.28886 1.55822,0 0,0.22697 -0.12633,0.12376 -0.21056,0.30946 -0.12634,0.20632 -0.10531,0.20633 -0.16845,0.39199 -0.0633,0.20632 -0.042,0.16506 -0.0633,0.30948 -0.0211,0.18568 -0.29481,0 0,-0.14442 0.0633,-0.33011 0.042,-0.20632 0.0633,-0.18569 0.1474,-0.39199 0.1053,-0.16506 0.0843,-0.1857 0.21058,-0.30947 0.12634,-0.12375 -1.17919,0 z"
     id="path21695"
     inkscape:connector-curvature="0"
     style="fill:#000000;fill-rule:evenodd" />
  <path
     d="m 451.11421,118.22512 0,-0.33012 0.33692,0 0,0.33012 -0.33692,0 z"
     id="path21697"
     inkscape:connector-curvature="0"
     style="fill:#000000;fill-rule:evenodd" />
  <path
     d="m 451.89333,117.06974 0,-0.22696 0.042,-0.33011 0.042,-0.12376 0.042,-0.12375 0.12634,-0.20632 0.0843,-0.0618 0.0843,-0.0618 0.23161,-0.0825 0.12634,0 0.0842,0 0.16846,0.0412 0.0842,0.0412 0.0632,0.0412 0.12634,0.10312 0.042,0.0825 0.0633,0.0618 0.0631,0.18569 0.021,0.10312 0.042,0.10313 0.0211,0.26823 0,0.18568 0,0.20631 -0.042,0.33012 -0.042,0.12376 -0.042,0.12375 -0.12635,0.20632 -0.1053,0.0618 -0.0843,0.0618 -0.21056,0.0825 -0.12633,0 -0.16845,0 -0.27376,-0.12375 -0.10531,-0.12377 -0.12632,-0.14441 -0.10531,-0.47453 0,-0.33011 0,0 z m 0.29478,0 0,0.28884 0.0633,0.37137 0.0842,0.10311 0.0633,0.10314 0.16845,0.0825 0.1053,0 0.1053,0 0.16845,-0.0825 0.0633,-0.10314 0.0632,-0.10311 0.0842,-0.37137 0,-0.28884 0,-0.28884 -0.0842,-0.39201 -0.0632,-0.10312 -0.0633,-0.0826 -0.16845,-0.10312 -0.1053,0 -0.1053,0 -0.16845,0.0825 -0.0633,0.0825 -0.0633,0.10313 -0.0842,0.41264 0,0.28883 0,0 z"
     id="path21699"
     inkscape:connector-curvature="0"
     style="fill:#000000;fill-rule:evenodd" />
  <path
     d="m 453.76737,116.18257 0,-0.28886 1.55819,0 0,0.22697 -0.12634,0.12376 -0.23162,0.30946 -0.10529,0.20632 -0.10531,0.20633 -0.16847,0.39199 -0.0633,0.20632 -0.042,0.16506 -0.0633,0.30948 -0.021,0.18568 -0.29478,0 0,-0.14442 0.0633,-0.33011 0.042,-0.20632 0.0633,-0.18569 0.1474,-0.39199 0.10529,-0.16506 0.0842,-0.1857 0.21058,-0.30947 0.12633,-0.12375 -1.17917,0 z"
     id="path21701"
     inkscape:connector-curvature="0"
     style="fill:#000000;fill-rule:evenodd" />
  <path
     d="m 485.54198,168.36022 -0.29478,0 0,-1.83622 -0.0633,0.0412 -0.12634,0.10316 -0.0843,0.062 -0.10529,0.0411 -0.1474,0.0826 -0.0633,0.0206 0,-0.28885 0.12634,-0.0411 0.21057,-0.14443 0.0843,-0.0826 0.1053,-0.0826 0.12634,-0.16507 0.042,-0.062 0.18952,0 0,2.35202 z"
     id="path21703"
     inkscape:connector-curvature="0"
     style="fill:#000000;fill-rule:evenodd" />
  <path
     d="m 486.30003,166.31769 0,-0.26824 1.5582,0 0,0.22698 -0.10531,0.10317 -0.23163,0.33012 -0.12632,0.18566 -0.10531,0.20633 -0.16846,0.41264 -0.0633,0.20633 -0.042,0.14442 -0.0633,0.33009 0,0.16505 -0.31586,0 0,-0.14441 0.0633,-0.3301 0.0631,-0.18568 0.042,-0.20633 0.14743,-0.37137 0.10529,-0.18569 0.10531,-0.1857 0.21055,-0.30947 0.10531,-0.12379 -1.17918,0 z"
     id="path21705"
     inkscape:connector-curvature="0"
     style="fill:#000000;fill-rule:evenodd" />
  <path
     d="m 488.32148,168.36022 0,-0.33008 0.33689,0 0,0.33008 -0.33689,0 z"
     id="path21707"
     inkscape:connector-curvature="0"
     style="fill:#000000;fill-rule:evenodd" />
  <path
     d="m 489.07951,167.20485 0,-0.20631 0.042,-0.33012 0.042,-0.14442 0.042,-0.12377 0.12633,-0.18568 0.1053,-0.0826 0.0843,-0.062 0.21056,-0.062 0.12633,0 0.10531,0 0.16845,0.0411 0.0632,0.0206 0.0842,0.0411 0.10531,0.12378 0.0632,0.062 0.042,0.0826 0.0632,0.16505 0.042,0.10317 0.0211,0.10318 0.021,0.26821 0,0.1857 0,0.20632 -0.042,0.33009 -0.042,0.12378 -0.042,0.12379 -0.12631,0.20632 -0.0843,0.0619 -0.0842,0.0826 -0.23165,0.062 -0.12634,0 -0.16844,0 -0.27375,-0.12379 -0.1053,-0.12378 -0.10531,-0.14442 -0.12634,-0.47453 0,-0.33012 0,0 z m 0.2948,0 0,0.28885 0.0843,0.392 0.0633,0.0826 0.0633,0.10316 0.16847,0.0826 0.1053,0 0.10531,0 0.16845,-0.0826 0.0633,-0.10316 0.0843,-0.0826 0.0633,-0.392 0,-0.28885 0,-0.28883 -0.0633,-0.39202 -0.0843,-0.0826 -0.0633,-0.10317 -0.16845,-0.10319 -0.10531,0 -0.1053,0 -0.16847,0.0826 -0.042,0.0826 -0.0842,0.12377 -0.0843,0.39202 0,0.28883 0,0 z"
     id="path21709"
     inkscape:connector-curvature="0"
     style="fill:#000000;fill-rule:evenodd" />
  <path
     d="m 492.0485,168.36022 -0.29478,0 0,-1.83622 -0.0633,0.0412 -0.12632,0.10316 -0.0842,0.062 -0.0842,0.0411 -0.16844,0.0826 -0.0633,0.0206 0,-0.28885 0.12634,-0.0411 0.21058,-0.14443 0.10529,-0.0826 0.0843,-0.0826 0.12633,-0.16507 0.042,-0.062 0.18952,0 0,2.35202 z"
     id="path21711"
     inkscape:connector-curvature="0"
     style="fill:#000000;fill-rule:evenodd" />
  <path
     d="m 497.24954,197.14149 -0.2948,0 0,-1.83621 -0.0632,0.062 -0.1474,0.10316 -0.0842,0.0411 -0.0842,0.0411 -0.1474,0.0826 -0.0633,0.0206 0,-0.26823 0.10531,-0.062 0.23162,-0.14443 0.0842,-0.0826 0.0842,-0.0826 0.14739,-0.14443 0.021,-0.0826 0.21057,0 0,2.35202 z"
     id="path21713"
     inkscape:connector-curvature="0"
     style="fill:#000000;fill-rule:evenodd" />
  <path
     d="m 498.00756,195.11958 0,-0.28883 1.55823,0 0,0.22695 -0.12634,0.12379 -0.21058,0.30948 -0.12633,0.20631 -0.1053,0.18569 -0.16846,0.41263 -0.0633,0.20633 -0.042,0.1444 -0.0632,0.33011 -0.021,0.16507 -0.29479,0 0,-0.12379 0.0633,-0.33009 0.042,-0.20633 0.0633,-0.20631 0.14742,-0.37138 0.10529,-0.18569 0.10531,-0.18567 0.21056,-0.28885 0.10531,-0.12379 -1.17919,0 z"
     id="path21715"
     inkscape:connector-curvature="0"
     style="fill:#000000;fill-rule:evenodd" />
  <path
     d="m 500.00796,197.14149 0,-0.30947 0.33692,0 0,0.30947 -0.33692,0 z"
     id="path21717"
     inkscape:connector-curvature="0"
     style="fill:#000000;fill-rule:evenodd" />
  <path
     d="m 501.50298,197.14149 0,-2.06317 -0.77909,0 0,-0.26822 1.89512,0 0,0.26822 -0.80017,0 0,2.06317 -0.31586,0 z"
     id="path21719"
     inkscape:connector-curvature="0"
     style="fill:#000000;fill-rule:evenodd" />
  <path
     d="m 502.91379,197.14149 0,-1.69178 0.2527,0 0,0.24756 0.0633,-0.0826 0.0842,-0.12379 0.042,-0.0206 0.042,-0.0206 0.10529,-0.0411 0.042,0 0.0842,0 0.14738,0.0411 0.0633,0.062 -0.0843,0.26821 -0.0633,-0.0411 -0.1053,-0.0206 -0.0632,0 -0.042,0 -0.0842,0.0206 -0.042,0.0206 -0.042,0.0411 -0.042,0.0826 -0.021,0.0411 -0.0211,0.0826 -0.021,0.16505 0,0.0826 0,0.88717 -0.2948,0 z"
     id="path21721"
     inkscape:connector-curvature="0"
     style="fill:#000000;fill-rule:evenodd" />
  <path
     d="m 504.0298,197.8017 0,-2.35199 0.27373,0 0,0.22692 0.042,-0.062 0.10532,-0.10318 0.0633,-0.0412 0.0633,-0.0206 0.12634,-0.0411 0.0842,0 0.12634,0 0.18951,0.062 0.0842,0.062 0.0843,0.0411 0.12633,0.16508 0.042,0.10316 0.042,0.10319 0.042,0.22693 0,0.12379 0,0.12379 -0.042,0.22693 -0.042,0.10318 -0.0633,0.10319 -0.12633,0.16504 -0.0843,0.062 -0.1053,0.062 -0.18951,0.0411 -0.1053,0 -0.0633,0 -0.12633,-0.0206 -0.0633,-0.0411 -0.0633,-0.0206 -0.0843,-0.0826 -0.042,-0.0411 0,0.82526 -0.2948,0 z m 0.25267,-1.48547 0,0.16505 0.0842,0.22694 0.0632,0.0826 0.0633,0.0826 0.16846,0.0826 0.0843,0 0.1053,0 0.16846,-0.0826 0.0633,-0.0826 0.0842,-0.0826 0.0633,-0.24756 0,-0.1857 0,-0.14441 -0.0633,-0.24759 -0.0842,-0.0826 -0.0633,-0.0826 -0.1474,-0.0826 -0.10529,0 -0.0842,0 -0.16846,0.0826 -0.0843,0.0826 -0.0633,0.10318 -0.0842,0.2476 0,0.16504 0,0 z"
     id="path21723"
     inkscape:connector-curvature="0"
     style="fill:#000000;fill-rule:evenodd" />
  <path
     d="m 506.91458,197.14149 -0.2948,0 0,-1.83621 -0.0633,0.062 -0.12633,0.10316 -0.0843,0.0411 -0.0842,0.0411 -0.16848,0.0826 -0.0633,0.0206 0,-0.26823 0.12634,-0.062 0.21055,-0.14443 0.0843,-0.0826 0.10531,-0.0826 0.12634,-0.14443 0.042,-0.0826 0.18951,0 0,2.35202 z"
     id="path21725"
     inkscape:connector-curvature="0"
     style="fill:#000000;fill-rule:evenodd" />
  <path
     d="m 122.67121,118.22512 -0.2948,0 0,-1.83623 -0.0421,0.0412 -0.1474,0.10312 -0.0842,0.0412 -0.0842,0.0619 -0.14741,0.0618 -0.0842,0.0206 0,-0.26821 0.12635,-0.0619 0.21056,-0.12375 0.10528,-0.0826 0.0842,-0.0825 0.12635,-0.16506 0.0421,-0.0826 0.1895,0 0,2.37265 z"
     id="path21727"
     inkscape:connector-curvature="0"
     style="fill:#000000;fill-rule:evenodd" />
  <path
     d="m 123.45031,116.18257 0,-0.28886 1.53713,0 0,0.22697 -0.10527,0.12376 -0.23162,0.30946 -0.10527,0.20632 -0.10528,0.20633 -0.18952,0.39199 -0.0421,0.20632 -0.0632,0.16506 -0.042,0.30948 -0.0211,0.18568 -0.29479,0 0,-0.14442 0.0631,-0.33011 0.0421,-0.20632 0.0631,-0.18569 0.1474,-0.39199 0.10528,-0.16506 0.0842,-0.1857 0.21056,-0.30947 0.12634,-0.12375 -1.17917,0 z"
     id="path21729"
     inkscape:connector-curvature="0"
     style="fill:#000000;fill-rule:evenodd" />
  <path
     d="m 125.45069,118.22512 0,-0.33012 0.33692,0 0,0.33012 -0.33692,0 z"
     id="path21731"
     inkscape:connector-curvature="0"
     style="fill:#000000;fill-rule:evenodd" />
  <path
     d="m 126.2298,117.06974 0,-0.22696 0.042,-0.33011 0.0421,-0.12376 0.0421,-0.12375 0.12634,-0.20632 0.0842,-0.0618 0.0842,-0.0618 0.21056,-0.0825 0.14741,0 0.0842,0 0.16844,0.0412 0.0842,0.0412 0.0632,0.0412 0.12635,0.10312 0.0421,0.0825 0.0421,0.0618 0.0842,0.18569 0.0211,0.10312 0.0211,0.10313 0.0421,0.26823 0,0.18568 0,0.20631 -0.0421,0.33012 -0.0421,0.12376 -0.0631,0.12375 -0.12635,0.20632 -0.0842,0.0618 -0.0842,0.0618 -0.21057,0.0825 -0.12635,0 -0.18951,0 -0.27374,-0.12375 -0.0842,-0.12377 -0.12635,-0.14441 -0.10528,-0.47453 0,-0.33011 0,0 z m 0.2948,0 0,0.28884 0.0632,0.37137 0.0632,0.10311 0.0842,0.10314 0.16846,0.0825 0.10527,0 0.0842,0 0.16844,-0.0825 0.0842,-0.10314 0.0632,-0.10311 0.0632,-0.37137 0,-0.28884 0,-0.28884 -0.0632,-0.39201 -0.0632,-0.10312 -0.0842,-0.0826 -0.16844,-0.10312 -0.10529,0 -0.0842,0 -0.16846,0.0825 -0.0631,0.0825 -0.0842,0.10313 -0.0632,0.41264 0,0.28883 0,0 z"
     id="path21733"
     inkscape:connector-curvature="0"
     style="fill:#000000;fill-rule:evenodd" />
  <path
     d="m 129.61993,117.93628 0,0.28884 -1.57925,0 0,-0.0619 0.0211,-0.10312 0.0211,-0.0412 0.0211,-0.0825 0.10527,-0.14442 0.0632,-0.0825 0.0632,-0.0825 0.18951,-0.16505 0.12634,-0.10311 0.18951,-0.16508 0.27374,-0.24758 0.0632,-0.0825 0.0632,-0.10311 0.0842,-0.16506 0,-0.0825 0,-0.0825 -0.0632,-0.14442 -0.0632,-0.0619 -0.0631,-0.0619 -0.16846,-0.0618 -0.10528,0 -0.10528,0 -0.16844,0.0618 -0.0632,0.0619 -0.0631,0.0619 -0.0632,0.16505 0,0.12375 -0.2948,-0.0412 0,-0.16505 0.12635,-0.24758 0.10529,-0.0825 0.10527,-0.0825 0.25269,-0.10311 0.1895,0 0.16846,0 0.27374,0.10311 0.1053,0.0825 0.0842,0.10313 0.10528,0.22694 0,0.14442 0,0.0618 -0.0211,0.14443 -0.0421,0.0618 -0.0211,0.0826 -0.10527,0.14442 -0.0632,0.0619 -0.0632,0.0825 -0.23163,0.20632 -0.16845,0.12375 -0.12635,0.12377 -0.16845,0.14441 -0.0421,0.0412 -0.0211,0.0412 -0.0632,0.0618 -0.0421,0.0412 1.17919,0 z"
     id="path21735"
     inkscape:connector-curvature="0"
     style="fill:#000000;fill-rule:evenodd" />
  <path
     d="m 540.71062,398.56911 -0.2948,0 0,-1.83623 -0.0633,0.0411 -0.12634,0.10319 -0.0842,0.062 -0.0843,0.0411 -0.16845,0.0826 -0.0633,0.0206 0,-0.28883 0.12632,-0.062 0.21057,-0.12379 0.1053,-0.0826 0.0843,-0.0826 0.12632,-0.16506 0.042,-0.062 0.1895,0 0,2.35201 z"
     id="path21737"
     inkscape:connector-curvature="0"
     style="fill:#000000;fill-rule:evenodd" />
  <path
     d="m 541.48974,396.52658 0,-0.26822 1.53714,0 0,0.20632 -0.1053,0.12379 -0.23164,0.33011 -0.10529,0.18568 -0.12634,0.20632 -0.16847,0.41263 -0.0633,0.20633 -0.042,0.1444 -0.0633,0.3095 0,0.18568 -0.29479,0 0,-0.14443 0.042,-0.3301 0.0633,-0.18568 0.042,-0.20632 0.16846,-0.37137 0.0842,-0.18569 0.10531,-0.18568 0.21057,-0.30947 0.1053,-0.12378 -1.15811,0 z"
     id="path21739"
     inkscape:connector-curvature="0"
     style="fill:#000000;fill-rule:evenodd" />
  <path
     d="m 543.49013,398.56911 0,-0.33009 0.33692,0 0,0.33009 -0.33692,0 z"
     id="path21741"
     inkscape:connector-curvature="0"
     style="fill:#000000;fill-rule:evenodd" />
  <path
     d="m 544.24816,397.41374 0,-0.20633 0.042,-0.35072 0.042,-0.1238 0.042,-0.12377 0.14743,-0.18569 0.0842,-0.0826 0.0842,-0.062 0.21056,-0.062 0.12635,0 0.1053,0 0.16846,0.0411 0.0633,0.0206 0.0842,0.0411 0.12635,0.12379 0.042,0.062 0.042,0.062 0.0842,0.18569 0.021,0.10318 0.0211,0.10317 0.021,0.26821 0,0.1857 0,0.2063 -0.042,0.33014 -0.042,0.12376 -0.042,0.1238 -0.12634,0.20632 -0.0842,0.062 -0.0843,0.0826 -0.21057,0.062 -0.1474,0 -0.16844,0 -0.27375,-0.1238 -0.1053,-0.12378 -0.10532,-0.14441 -0.12633,-0.47455 0,-0.33009 0,0 z m 0.31586,0 0,0.28883 0.0633,0.39202 0.0633,0.0826 0.0633,0.10318 0.16847,0.0826 0.10529,0 0.10531,0 0.16845,-0.0826 0.0633,-0.10318 0.0843,-0.0826 0.0633,-0.39202 0,-0.28883 0,-0.28884 -0.0633,-0.39202 -0.0843,-0.0826 -0.0633,-0.10317 -0.16845,-0.10318 -0.10531,0 -0.10529,0 -0.14741,0.0826 -0.0633,0.0826 -0.0842,0.12378 -0.0633,0.39202 0,0.28884 0,0 z"
     id="path21743"
     inkscape:connector-curvature="0"
     style="fill:#000000;fill-rule:evenodd" />
  <path
     d="m 546.12221,397.95018 0.29479,-0.0411 0.021,0.12378 0.0843,0.16506 0.0633,0.062 0.0633,0.0619 0.14742,0.0411 0.0843,0 0.10529,0 0.16844,-0.062 0.0842,-0.0826 0.0633,-0.062 0.0633,-0.16508 0,-0.10317 0,-0.10318 -0.0633,-0.16505 -0.0633,-0.062 -0.0632,-0.062 -0.16845,-0.0826 -0.10531,0 -0.042,0 -0.10531,0.0206 -0.0633,0.0206 0.042,-0.24759 0.0211,0 0.021,0 0,0 0.1053,0 0.16844,-0.0411 0.0633,-0.062 0.0842,-0.0411 0.0633,-0.14443 0,-0.10318 0,-0.0826 -0.042,-0.12378 -0.0633,-0.062 -0.0632,-0.0411 -0.12633,-0.062 -0.0843,0 -0.0842,0 -0.14741,0.062 -0.0633,0.0411 -0.0632,0.062 -0.0633,0.16504 -0.0211,0.10318 -0.29479,-0.0619 0.021,-0.14443 0.12634,-0.22694 0.1053,-0.0826 0.0843,-0.062 0.25267,-0.0826 0.12633,0 0.10531,0 0.18951,0.0411 0.0633,0.0411 0.0842,0.0411 0.12634,0.10318 0.042,0.0826 0.0633,0.062 0.042,0.14442 0,0.0826 0,0.0826 -0.042,0.14445 -0.042,0.062 -0.042,0.062 -0.12633,0.0826 -0.0842,0.0411 0.1053,0.0206 0.16847,0.10317 0.0633,0.0826 0.042,0.0826 0.0633,0.1857 0,0.10315 0,0.16506 -0.10529,0.24758 -0.12634,0.12378 -0.1053,0.10317 -0.2948,0.10319 -0.16843,0 -0.16848,0 -0.25267,-0.10319 -0.10531,-0.0826 -0.1053,-0.0826 -0.12634,-0.24758 0,-0.14443 0,0 z"
     id="path21745"
     inkscape:connector-curvature="0"
     style="fill:#000000;fill-rule:evenodd" />
</svg>
